<svg width="129" height="121" viewBox="0 0 129 121" fill="none" xmlns="http://www.w3.org/2000/svg">
<ellipse cx="64.7382" cy="60.4541" rx="63.9409" ry="59.8721" fill="#5370FF"/>
<path d="M62.2354 54.2501H68.4021V32.6667C68.4021 31.7931 68.1061 31.0614 67.5141 30.4714C66.9221 29.8815 66.1903 29.5855 65.3188 29.5834C64.4472 29.5814 63.7154 29.8774 63.1234 30.4714C62.5314 31.0655 62.2354 31.7972 62.2354 32.6667V54.2501ZM43.7354 66.5834H86.9021V60.4167H43.7354V66.5834ZM39.2646 85.0834H46.8188V78.9168C46.8188 78.0431 47.1148 77.3114 47.7068 76.7214C48.2988 76.1315 49.0306 75.8355 49.9021 75.8334C50.7737 75.8314 51.5065 76.1274 52.1005 76.7214C52.6946 77.3155 52.9896 78.0473 52.9854 78.9168V85.0834H62.2354V78.9168C62.2354 78.0431 62.5314 77.3114 63.1234 76.7214C63.7154 76.1315 64.4472 75.8355 65.3188 75.8334C66.1903 75.8314 66.9231 76.1274 67.5172 76.7214C68.1112 77.3155 68.4062 78.0473 68.4021 78.9168V85.0834H77.6521V78.9168C77.6521 78.0431 77.9481 77.3114 78.5401 76.7214C79.1321 76.1315 79.8639 75.8355 80.7354 75.8334C81.607 75.8314 82.3398 76.1274 82.9339 76.7214C83.5279 77.3155 83.8229 78.0473 83.8188 78.9168V85.0834H91.3729L88.2896 72.7501H42.3479L39.2646 85.0834ZM91.3729 91.2501H39.2646C37.2604 91.2501 35.6417 90.4536 34.4084 88.8605C33.175 87.2674 32.8153 85.4945 33.3292 83.5418L37.5688 66.5834V60.4167C37.5688 58.7209 38.1731 57.2697 39.3818 56.0631C40.5904 54.8565 42.0417 54.2521 43.7354 54.2501H56.0688V32.6667C56.0688 30.0973 56.9681 27.9133 58.7667 26.1147C60.5653 24.3161 62.7493 23.4167 65.3188 23.4167C67.8882 23.4167 70.0722 24.3161 71.8709 26.1147C73.6695 27.9133 74.5688 30.0973 74.5688 32.6667V54.2501H86.9021C88.5979 54.2501 90.0502 54.8544 91.2589 56.0631C92.4675 57.2718 93.0708 58.723 93.0688 60.4167V66.5834L97.3084 83.5418C97.9764 85.4945 97.6804 87.2674 96.4204 88.8605C95.1603 90.4536 93.4778 91.2501 91.3729 91.2501Z" fill="#DBE3FF"/>
</svg>
