<svg width="129" height="121" viewBox="0 0 129 121" fill="none" xmlns="http://www.w3.org/2000/svg">
<ellipse cx="64.8215" cy="60.7061" rx="63.9409" ry="59.8721" fill="#5370FF"/>
<g clip-path="url(#clip0_2374_46)">
<path d="M46.6548 47.2578H43.4881V87.8828C43.4881 89.5404 44.1554 91.1301 45.3431 92.3022C46.5308 93.4743 48.1417 94.1328 49.8215 94.1328H81.4881C83.1678 94.1328 84.7787 93.4743 85.9665 92.3022C87.1542 91.1301 87.8215 89.5404 87.8215 87.8828V47.2578H46.6548ZM59.3215 84.7578H52.9881V56.6328H59.3215V84.7578ZM78.3215 84.7578H71.9881V56.6328H78.3215V84.7578ZM80.2785 37.8828L75.1548 31.6328H56.1548L51.0311 37.8828H37.1548V44.1328H94.1548V37.8828H80.2785Z" fill="#DBE3FF"/>
</g>
<defs>
<clipPath id="clip0_2374_46">
<rect width="76" height="75" fill="white" transform="translate(37.1548 32.6328)"/>
</clipPath>
</defs>
</svg>
