<svg width="129" height="121" viewBox="0 0 129 121" fill="none" xmlns="http://www.w3.org/2000/svg">
<ellipse cx="64.5205" cy="60.4541" rx="63.9409" ry="59.8721" fill="#5370FF"/>
<path d="M35.1454 40.2041H95.8954C97.7517 40.2041 99.2704 41.7229 99.2704 43.5791C99.2704 45.4354 97.7517 46.9541 95.8954 46.9541V84.0791H89.1454V77.3291H75.6454V84.0791H68.8954V46.9541H41.8954V84.0791H35.1454V46.9541C33.2892 46.9541 31.7704 45.4354 31.7704 43.5791C31.7704 41.7229 33.2892 40.2041 35.1454 40.2041ZM79.0204 55.3916V57.0791H85.7704V55.3916C85.7704 54.4466 85.0279 53.7041 84.0829 53.7041H80.7079C79.7629 53.7041 79.0204 54.4466 79.0204 55.3916ZM79.0204 68.8916V70.5791H85.7704V68.8916C85.7704 67.9466 85.0279 67.2041 84.0829 67.2041H80.7079C79.7629 67.2041 79.0204 67.9466 79.0204 68.8916Z" fill="#DBE3FF"/>
</svg>
