<svg width="123" height="123" viewBox="0 0 123 123" fill="none" xmlns="http://www.w3.org/2000/svg">
<g opacity="0.5" clip-path="url(#clip0_2338_248)">
<path d="M71.7785 8.6769C68.6294 -1.9981 53.5014 -1.9981 50.3523 8.6769L49.5898 11.2694C49.1193 12.8676 48.297 14.3401 47.1833 15.5791C46.0696 16.8182 44.6927 17.7922 43.1535 18.4298C41.6144 19.0674 39.952 19.3524 38.2884 19.2639C36.6247 19.1754 35.002 18.7157 33.5392 17.9184L31.1754 16.6222C21.3926 11.2999 10.6947 21.9978 16.0246 31.773L17.3132 34.1444C20.7139 40.3969 17.4886 48.182 10.6642 50.195L8.07168 50.9575C-2.60332 54.1067 -2.60332 69.2346 8.07168 72.3838L10.6642 73.1463C12.2623 73.6168 13.7349 74.4391 14.9739 75.5528C16.2129 76.6665 17.1869 78.0434 17.8245 79.5826C18.4621 81.1217 18.7471 82.7841 18.6587 84.4477C18.5702 86.1113 18.1104 87.7341 17.3132 89.1969L16.0169 91.5607C10.6947 101.344 21.3926 112.041 31.1678 106.712L33.5392 105.423C35.002 104.626 36.6247 104.166 38.2884 104.077C39.952 103.989 41.6144 104.274 43.1535 104.912C44.6927 105.549 46.0696 106.523 47.1833 107.762C48.297 109.001 49.1193 110.474 49.5898 112.072L50.3523 114.664C53.5014 125.339 68.6294 125.339 71.7785 114.664L72.5411 112.072C73.0116 110.474 73.8338 109.001 74.9476 107.762C76.0613 106.523 77.4382 105.549 78.9774 104.912C80.5165 104.274 82.1788 103.989 83.8425 104.077C85.5061 104.166 87.1288 104.626 88.5917 105.423L90.9554 106.719C100.738 112.041 111.436 101.344 106.106 91.5683L104.818 89.1969C104.02 87.7341 103.561 86.1113 103.472 84.4477C103.384 82.7841 103.669 81.1217 104.306 79.5826C104.944 78.0434 105.918 76.6665 107.157 75.5528C108.396 74.4391 109.869 73.6168 111.467 73.1463L114.059 72.3838C124.734 69.2346 124.734 54.1067 114.059 50.9575L111.467 50.195C109.869 49.7245 108.396 48.9022 107.157 47.7885C105.918 46.6748 104.944 45.2979 104.306 43.7587C103.669 42.2196 103.384 40.5572 103.472 38.8936C103.561 37.23 104.02 35.6072 104.818 34.1444L106.114 31.7807C111.436 21.9978 100.738 11.2999 90.9631 16.6298L88.5917 17.9184C87.1288 18.7157 85.5061 19.1754 83.8425 19.2639C82.1788 19.3524 80.5165 19.0674 78.9774 18.4298C77.4382 17.7922 76.0613 16.8182 74.9476 15.5791C73.8338 14.3401 73.0116 12.8676 72.5411 11.2694L71.7785 8.6769ZM61.0654 84.0119C55.1402 84.0119 49.4576 81.6581 45.2678 77.4683C41.078 73.2785 38.7242 67.5959 38.7242 61.6707C38.7242 55.7454 41.078 50.0628 45.2678 45.873C49.4576 41.6832 55.1402 39.3294 61.0654 39.3294C66.9887 39.3294 72.6693 41.6824 76.8577 45.8708C81.0461 50.0591 83.3991 55.7398 83.3991 61.663C83.3991 67.5863 81.0461 73.2669 76.8577 77.4553C72.6693 81.6437 66.9887 83.9967 61.0654 83.9967V84.0119Z" fill="#2C3278"/>
</g>
<defs>
<clipPath id="clip0_2338_248">
<rect width="122" height="122" fill="white" transform="translate(0.0654297 0.670654)"/>
</clipPath>
</defs>
</svg>
