<svg width="34" height="34" viewBox="0 0 34 34" fill="none" xmlns="http://www.w3.org/2000/svg">
<g clip-path="url(#clip0_2025_67)">
<path d="M29.5413 6.4718H3.87467C3.38844 6.4718 2.92212 6.66496 2.57831 7.00877C2.23449 7.35259 2.04134 7.8189 2.04134 8.30514V26.6385C2.04134 27.1247 2.23449 27.591 2.57831 27.9348C2.92212 28.2786 3.38844 28.4718 3.87467 28.4718H29.5413C30.0276 28.4718 30.4939 28.2786 30.8377 27.9348C31.1815 27.591 31.3747 27.1247 31.3747 26.6385V8.30514C31.3747 7.8189 31.1815 7.35259 30.8377 7.00877C30.4939 6.66496 30.0276 6.4718 29.5413 6.4718ZM28.1297 26.6385H5.39634L11.813 20.0018L10.493 18.7276L3.87467 25.5751V9.69847L15.2688 21.0376C15.6123 21.3791 16.077 21.5708 16.5613 21.5708C17.0457 21.5708 17.5103 21.3791 17.8538 21.0376L29.5413 9.4143V25.456L22.7947 18.7093L21.5022 20.0018L28.1297 26.6385ZM5.0755 8.30514H28.0563L16.5613 19.736L5.0755 8.30514Z" fill="#2C3278"/>
</g>
<defs>
<clipPath id="clip0_2025_67">
<rect width="33" height="33" fill="white" transform="translate(0.208008 0.971802)"/>
</clipPath>
</defs>
</svg>
