<svg width="28" height="28" viewBox="0 0 28 28" fill="none" xmlns="http://www.w3.org/2000/svg">
<path d="M0.59153 14.3735C0.59153 14.7714 0.749565 15.1529 1.03087 15.4342C1.31217 15.7155 1.69371 15.8735 2.09153 15.8735H11.0915C11.4894 15.8735 11.8709 15.7155 12.1522 15.4342C12.4335 15.1529 12.5915 14.7714 12.5915 14.3735V2.37354C12.5915 1.97571 12.4335 1.59418 12.1522 1.31287C11.8709 1.03157 11.4894 0.873535 11.0915 0.873535H2.09153C1.69371 0.873535 1.31217 1.03157 1.03087 1.31287C0.749565 1.59418 0.59153 1.97571 0.59153 2.37354V14.3735ZM0.59153 26.3735C0.59153 26.7714 0.749565 27.1529 1.03087 27.4342C1.31217 27.7155 1.69371 27.8735 2.09153 27.8735H11.0915C11.4894 27.8735 11.8709 27.7155 12.1522 27.4342C12.4335 27.1529 12.5915 26.7714 12.5915 26.3735V20.3735C12.5915 19.9757 12.4335 19.5942 12.1522 19.3129C11.8709 19.0316 11.4894 18.8735 11.0915 18.8735H2.09153C1.69371 18.8735 1.31217 19.0316 1.03087 19.3129C0.749565 19.5942 0.59153 19.9757 0.59153 20.3735V26.3735ZM15.5915 26.3735C15.5915 26.7714 15.7496 27.1529 16.0309 27.4342C16.3122 27.7155 16.6937 27.8735 17.0915 27.8735H26.0915C26.4894 27.8735 26.8709 27.7155 27.1522 27.4342C27.4335 27.1529 27.5915 26.7714 27.5915 26.3735V14.3735C27.5915 13.9757 27.4335 13.5942 27.1522 13.3129C26.8709 13.0316 26.4894 12.8735 26.0915 12.8735H17.0915C16.6937 12.8735 16.3122 13.0316 16.0309 13.3129C15.7496 13.5942 15.5915 13.9757 15.5915 14.3735V26.3735ZM17.0915 0.873535C16.6937 0.873535 16.3122 1.03157 16.0309 1.31287C15.7496 1.59418 15.5915 1.97571 15.5915 2.37354V8.37354C15.5915 8.77136 15.7496 9.15289 16.0309 9.4342C16.3122 9.7155 16.6937 9.87354 17.0915 9.87354H26.0915C26.4894 9.87354 26.8709 9.7155 27.1522 9.4342C27.4335 9.15289 27.5915 8.77136 27.5915 8.37354V2.37354C27.5915 1.97571 27.4335 1.59418 27.1522 1.31287C26.8709 1.03157 26.4894 0.873535 26.0915 0.873535H17.0915Z" fill="#2C3278"/>
</svg>
