<svg width="21" height="17" viewBox="0 0 21 17" fill="none" xmlns="http://www.w3.org/2000/svg">
<path d="M18.9882 0.520508H2.98816C1.88816 0.520508 0.998159 1.42051 0.998159 2.52051L0.988159 14.5205C0.988159 15.6205 1.88816 16.5205 2.98816 16.5205H18.9882C20.0882 16.5205 20.9882 15.6205 20.9882 14.5205V2.52051C20.9882 1.42051 20.0882 0.520508 18.9882 0.520508ZM18.5882 4.77051L11.5182 9.19051C11.1982 9.39051 10.7782 9.39051 10.4582 9.19051L3.38816 4.77051C3.28789 4.71422 3.20008 4.63817 3.13005 4.54696C3.06002 4.45575 3.00922 4.35129 2.98073 4.23988C2.95225 4.12847 2.94666 4.01244 2.96432 3.89881C2.98197 3.78519 3.0225 3.67632 3.08344 3.57881C3.14439 3.4813 3.22448 3.39716 3.31889 3.3315C3.41329 3.26584 3.52003 3.22002 3.63265 3.19681C3.74528 3.17359 3.86144 3.17347 3.97411 3.19646C4.08679 3.21944 4.19362 3.26504 4.28816 3.33051L10.9882 7.52051L17.6882 3.33051C17.7827 3.26504 17.8895 3.21944 18.0022 3.19646C18.1149 3.17347 18.231 3.17359 18.3437 3.19681C18.4563 3.22002 18.563 3.26584 18.6574 3.3315C18.7518 3.39716 18.8319 3.4813 18.8929 3.57881C18.9538 3.67632 18.9943 3.78519 19.012 3.89881C19.0297 4.01244 19.0241 4.12847 18.9956 4.23988C18.9671 4.35129 18.9163 4.45575 18.8463 4.54696C18.7762 4.63817 18.6884 4.71422 18.5882 4.77051Z" fill="#2C3278"/>
</svg>
