<svg width="121" height="112" viewBox="0 0 121 112" fill="none" xmlns="http://www.w3.org/2000/svg">
<path opacity="0.5" d="M118.312 67.6807C118.312 67.9217 118.286 68.0904 118.234 68.1868C114.906 81.1042 107.937 91.5755 97.3282 99.6007C86.719 107.626 74.2896 111.638 60.04 111.638C52.4472 111.638 45.1014 110.313 38.0026 107.662C30.9038 105.011 24.5721 101.227 19.0075 96.3111L8.94435 105.638C7.95624 106.553 6.78611 107.011 5.43396 107.011C4.08181 107.011 2.91168 106.553 1.92357 105.638C0.935461 104.722 0.441406 103.637 0.441406 102.384V69.9942C0.441406 68.7411 0.935461 67.6566 1.92357 66.7408C2.91168 65.825 4.08181 65.3671 5.43396 65.3671H40.3818C41.734 65.3671 42.9041 65.825 43.8922 66.7408C44.8803 67.6566 45.3744 68.7411 45.3744 69.9942C45.3744 71.2474 44.8803 72.3319 43.8922 73.2477L33.205 83.1526C36.8974 86.3338 41.0839 88.792 45.7644 90.5271C50.445 92.2623 55.3075 93.1299 60.3521 93.1299C67.3208 93.1299 73.8215 91.5634 79.8542 88.4305C85.8869 85.2975 90.7234 80.9837 94.3638 75.489C94.9359 74.6696 96.314 71.8499 98.4983 67.03C98.9143 65.9214 99.6944 65.3671 100.839 65.3671H115.816C116.492 65.3671 117.077 65.5961 117.571 66.054C118.065 66.5118 118.312 67.0541 118.312 67.6807ZM120.263 9.84154V42.2315C120.263 43.4846 119.769 44.5691 118.781 45.4849C117.792 46.4007 116.622 46.8586 115.27 46.8586H80.3223C78.9701 46.8586 77.8 46.4007 76.8119 45.4849C75.8238 44.5691 75.3297 43.4846 75.3297 42.2315C75.3297 40.9783 75.8238 39.8938 76.8119 38.978L87.5771 29.0008C79.8802 22.3975 70.8052 19.0958 60.3521 19.0958C53.3833 19.0958 46.8826 20.6623 40.8499 23.7952C34.8172 26.9282 29.9807 31.242 26.3403 36.7367C25.7682 37.5561 24.3901 40.3758 22.2058 45.1957C21.7898 46.3043 21.0097 46.8586 19.8656 46.8586H4.34184C3.66576 46.8586 3.0807 46.6296 2.58664 46.1717C2.09259 45.7139 1.84556 45.1716 1.84556 44.545V44.0389C5.22594 31.1215 12.2467 20.6502 22.9079 12.6251C33.5691 4.59987 46.0505 0.58728 60.3521 0.58728C67.9449 0.58728 75.3297 1.92481 82.5065 4.59987C89.6833 7.27493 96.054 11.0465 101.619 15.9147L111.76 6.58809C112.748 5.6723 113.918 5.21441 115.27 5.21441C116.622 5.21441 117.792 5.6723 118.781 6.58809C119.769 7.50388 120.263 8.58836 120.263 9.84154Z" fill="#2C3278"/>
</svg>
