<svg width="35" height="35" viewBox="0 0 35 35" fill="none" xmlns="http://www.w3.org/2000/svg">
<path d="M17.3745 24.3475C16.6231 24.3475 15.9024 24.0489 15.371 23.5176C14.8397 22.9862 14.5412 22.2656 14.5412 21.5141C14.5412 19.9416 15.802 18.6808 17.3745 18.6808C18.126 18.6808 18.8466 18.9793 19.378 19.5107C19.9093 20.042 20.2078 20.7627 20.2078 21.5141C20.2078 22.2656 19.9093 22.9862 19.378 23.5176C18.8466 24.0489 18.126 24.3475 17.3745 24.3475ZM25.8745 28.5975V14.4308H8.87452V28.5975H25.8745ZM25.8745 11.5975C26.626 11.5975 27.3466 11.896 27.878 12.4273C28.4093 12.9587 28.7078 13.6793 28.7078 14.4308V28.5975C28.7078 29.3489 28.4093 30.0696 27.878 30.6009C27.3466 31.1323 26.626 31.4308 25.8745 31.4308H8.87452C8.12307 31.4308 7.4024 31.1323 6.87105 30.6009C6.33969 30.0696 6.04118 29.3489 6.04118 28.5975V14.4308C6.04118 12.8583 7.30202 11.5975 8.87452 11.5975H10.2912V8.76412C10.2912 6.8855 11.0375 5.08383 12.3658 3.75545C13.6942 2.42706 15.4959 1.68079 17.3745 1.68079C18.3047 1.68079 19.2258 1.864 20.0852 2.21997C20.9446 2.57594 21.7254 3.0977 22.3832 3.75545C23.0409 4.41319 23.5627 5.19406 23.9187 6.05344C24.2746 6.91283 24.4578 7.83392 24.4578 8.76412V11.5975H25.8745ZM17.3745 4.51412C16.2473 4.51412 15.1663 4.96189 14.3693 5.75892C13.5723 6.55595 13.1245 7.63695 13.1245 8.76412V11.5975H21.6245V8.76412C21.6245 7.63695 21.1768 6.55595 20.3797 5.75892C19.5827 4.96189 18.5017 4.51412 17.3745 4.51412Z" fill="#2C3278"/>
</svg>
