<svg width="37" height="37" viewBox="0 0 37 37" fill="none" xmlns="http://www.w3.org/2000/svg">
<path d="M18.3745 6.55518C19.9658 6.55518 21.4919 7.18732 22.6172 8.31253C23.7424 9.43775 24.3745 10.9639 24.3745 12.5552C24.3745 14.1465 23.7424 15.6726 22.6172 16.7978C21.4919 17.923 19.9658 18.5552 18.3745 18.5552C16.7832 18.5552 15.2571 17.923 14.1319 16.7978C13.0067 15.6726 12.3745 14.1465 12.3745 12.5552C12.3745 10.9639 13.0067 9.43775 14.1319 8.31253C15.2571 7.18732 16.7832 6.55518 18.3745 6.55518ZM18.3745 9.55518C17.5789 9.55518 16.8158 9.87125 16.2532 10.4339C15.6906 10.9965 15.3745 11.7595 15.3745 12.5552C15.3745 13.3508 15.6906 14.1139 16.2532 14.6765C16.8158 15.2391 17.5789 15.5552 18.3745 15.5552C19.1702 15.5552 19.9332 15.2391 20.4958 14.6765C21.0584 14.1139 21.3745 13.3508 21.3745 12.5552C21.3745 11.7595 21.0584 10.9965 20.4958 10.4339C19.9332 9.87125 19.1702 9.55518 18.3745 9.55518ZM18.3745 20.0552C22.3795 20.0552 30.3745 22.0502 30.3745 26.0552V30.5552H6.37451V26.0552C6.37451 22.0502 14.3695 20.0552 18.3745 20.0552ZM18.3745 22.9052C13.9195 22.9052 9.22451 25.0952 9.22451 26.0552V27.7052H27.5245V26.0552C27.5245 25.0952 22.8295 22.9052 18.3745 22.9052Z" fill="#2C3278"/>
</svg>
