<svg width="35" height="34" viewBox="0 0 35 34" fill="none" xmlns="http://www.w3.org/2000/svg">
<path d="M17.0915 3.34717C14.4615 3.34717 11.9391 4.36123 10.0794 6.16627C8.21965 7.9713 7.17486 10.4195 7.17486 12.9722V17.8232C7.17507 18.0365 7.12414 18.2469 7.02611 18.4378L4.59369 23.1582C4.47487 23.3888 4.41877 23.6451 4.4307 23.9026C4.44264 24.1602 4.52223 24.4106 4.6619 24.6299C4.80157 24.8492 4.9967 25.0302 5.22874 25.1558C5.46078 25.2813 5.72204 25.3472 5.98769 25.3472H28.1954C28.461 25.3472 28.7223 25.2813 28.9543 25.1558C29.1864 25.0302 29.3815 24.8492 29.5212 24.6299C29.6608 24.4106 29.7404 24.1602 29.7524 23.9026C29.7643 23.6451 29.7082 23.3888 29.5894 23.1582L27.1584 18.4378C27.0598 18.247 27.0084 18.0366 27.0082 17.8232V12.9722C27.0082 10.4195 25.9634 7.9713 24.1037 6.16627C22.2439 4.36123 19.7216 3.34717 17.0915 3.34717ZM17.0915 29.4722C16.2123 29.4726 15.3545 29.2084 14.6365 28.7158C13.9184 28.2233 13.3754 27.5268 13.0824 26.7222H21.1007C20.8076 27.5268 20.2646 28.2233 19.5466 28.7158C18.8285 29.2084 17.9708 29.4726 17.0915 29.4722Z" fill="#2C3278"/>
</svg>
