<svg width="35" height="35" viewBox="0 0 35 35" fill="none" xmlns="http://www.w3.org/2000/svg">
<path d="M17.1548 3.46582C24.9791 3.46582 31.3215 9.80824 31.3215 17.6325C31.3215 25.4567 24.9791 31.7992 17.1548 31.7992C9.33058 31.7992 2.98816 25.4567 2.98816 17.6325C2.98816 9.80824 9.33058 3.46582 17.1548 3.46582ZM17.1548 9.13249C16.7791 9.13249 16.4188 9.28174 16.1531 9.54742C15.8874 9.8131 15.7382 10.1734 15.7382 10.5492V17.6325C15.7382 18.0082 15.8875 18.3685 16.1532 18.6341L20.4032 22.8841C20.6704 23.1421 21.0283 23.2849 21.3997 23.2817C21.7712 23.2785 22.1265 23.1295 22.3892 22.8668C22.6518 22.6042 22.8008 22.2488 22.804 21.8774C22.8073 21.5059 22.6645 21.1481 22.4064 20.8809L18.5715 17.046V10.5492C18.5715 10.1734 18.4222 9.8131 18.1566 9.54742C17.8909 9.28174 17.5306 9.13249 17.1548 9.13249Z" fill="#E86062"/>
</svg>
