<svg width="24" height="24" viewBox="0 0 24 24" fill="none" xmlns="http://www.w3.org/2000/svg">
<g clip-path="url(#clip0_2203_790)">
<path d="M6.00001 17.1777V8.80965C6.66722 8.57376 7.22956 8.10958 7.58764 7.49917C7.94571 6.88876 8.07647 6.17141 7.9568 5.47392C7.83713 4.77642 7.47474 4.14369 6.93367 3.68755C6.3926 3.23141 5.70769 2.98123 5.00001 2.98123C4.29232 2.98123 3.60741 3.23141 3.06635 3.68755C2.52528 4.14369 2.16288 4.77642 2.04321 5.47392C1.92354 6.17141 2.0543 6.88876 2.41237 7.49917C2.77045 8.10958 3.33279 8.57376 4.00001 8.80965V17.1777C3.33279 17.4135 2.77045 17.8777 2.41237 18.4881C2.0543 19.0985 1.92354 19.8159 2.04321 20.5134C2.16288 21.2109 2.52528 21.8436 3.06635 22.2998C3.60741 22.7559 4.29232 23.0061 5.00001 23.0061C5.70769 23.0061 6.3926 22.7559 6.93367 22.2998C7.47474 21.8436 7.83713 21.2109 7.9568 20.5134C8.07647 19.8159 7.94571 19.0985 7.58764 18.4881C7.22956 17.8777 6.66722 17.4135 6.00001 17.1777ZM20 17.1777V6.99365C20 6.46322 19.7893 5.95451 19.4142 5.57944C19.0391 5.20437 18.5304 4.99365 18 4.99365H12.828L14.414 3.40765L13 1.99365L10.414 4.57965L9.00001 5.99365L10.414 7.40765L13 9.99365L14.414 8.57965L12.828 6.99365H18V17.1777C17.3328 17.4135 16.7705 17.8777 16.4124 18.4881C16.0543 19.0985 15.9235 19.8159 16.0432 20.5134C16.1629 21.2109 16.5253 21.8436 17.0663 22.2998C17.6074 22.7559 18.2923 23.0061 19 23.0061C19.7077 23.0061 20.3926 22.7559 20.9337 22.2998C21.4747 21.8436 21.8371 21.2109 21.9568 20.5134C22.0765 19.8159 21.9457 19.0985 21.5876 18.4881C21.2296 17.8777 20.6672 17.4135 20 17.1777Z" fill="#4156BE"/>
</g>
<defs>
<clipPath id="clip0_2203_790">
<rect width="24" height="24" fill="white" transform="translate(0 -0.00634766)"/>
</clipPath>
</defs>
</svg>
