<svg width="33" height="33" viewBox="0 0 33 33" fill="none" xmlns="http://www.w3.org/2000/svg">
<path d="M11.1247 3.97461C11.1247 3.70939 11.0193 3.45504 10.8318 3.2675C10.6443 3.07997 10.3899 2.97461 10.1247 2.97461C9.85948 2.97461 9.60512 3.07997 9.41759 3.2675C9.23005 3.45504 9.1247 3.70939 9.1247 3.97461V6.08128C7.2047 6.23461 5.94603 6.61061 5.0207 7.53728C4.09403 8.46261 3.71803 9.72261 3.56336 11.6413H30.0194C29.8647 9.72128 29.4887 8.46261 28.562 7.53728C27.6367 6.61061 26.3767 6.23461 24.458 6.07994V3.97461C24.458 3.70939 24.3527 3.45504 24.1651 3.2675C23.9776 3.07997 23.7232 2.97461 23.458 2.97461C23.1928 2.97461 22.9385 3.07997 22.7509 3.2675C22.5634 3.45504 22.458 3.70939 22.458 3.97461V5.99194C21.5714 5.97461 20.5767 5.97461 19.458 5.97461H14.1247C13.006 5.97461 12.0114 5.97461 11.1247 5.99194V3.97461Z" fill="#2C3278"/>
<path fill-rule="evenodd" clip-rule="evenodd" d="M3.45803 16.6411C3.45803 15.5224 3.45803 14.5278 3.47536 13.6411H30.1074C30.1247 14.5278 30.1247 15.5224 30.1247 16.6411V19.3078C30.1247 24.3358 30.1247 26.8504 28.562 28.4118C26.9994 29.9731 24.486 29.9744 19.458 29.9744H14.1247C9.0967 29.9744 6.58203 29.9744 5.0207 28.4118C3.45936 26.8491 3.45803 24.3358 3.45803 19.3078V16.6411ZM23.458 19.3078C23.8117 19.3078 24.1508 19.1673 24.4008 18.9173C24.6509 18.6672 24.7914 18.3281 24.7914 17.9744C24.7914 17.6208 24.6509 17.2817 24.4008 17.0316C24.1508 16.7816 23.8117 16.6411 23.458 16.6411C23.1044 16.6411 22.7653 16.7816 22.5152 17.0316C22.2652 17.2817 22.1247 17.6208 22.1247 17.9744C22.1247 18.3281 22.2652 18.6672 22.5152 18.9173C22.7653 19.1673 23.1044 19.3078 23.458 19.3078ZM23.458 24.6411C23.8117 24.6411 24.1508 24.5006 24.4008 24.2506C24.6509 24.0005 24.7914 23.6614 24.7914 23.3078C24.7914 22.9542 24.6509 22.615 24.4008 22.365C24.1508 22.1149 23.8117 21.9744 23.458 21.9744C23.1044 21.9744 22.7653 22.1149 22.5152 22.365C22.2652 22.615 22.1247 22.9542 22.1247 23.3078C22.1247 23.6614 22.2652 24.0005 22.5152 24.2506C22.7653 24.5006 23.1044 24.6411 23.458 24.6411ZM18.1247 17.9744C18.1247 18.3281 17.9842 18.6672 17.7342 18.9173C17.4841 19.1673 17.145 19.3078 16.7914 19.3078C16.4377 19.3078 16.0986 19.1673 15.8486 18.9173C15.5985 18.6672 15.458 18.3281 15.458 17.9744C15.458 17.6208 15.5985 17.2817 15.8486 17.0316C16.0986 16.7816 16.4377 16.6411 16.7914 16.6411C17.145 16.6411 17.4841 16.7816 17.7342 17.0316C17.9842 17.2817 18.1247 17.6208 18.1247 17.9744ZM18.1247 23.3078C18.1247 23.6614 17.9842 24.0005 17.7342 24.2506C17.4841 24.5006 17.145 24.6411 16.7914 24.6411C16.4377 24.6411 16.0986 24.5006 15.8486 24.2506C15.5985 24.0005 15.458 23.6614 15.458 23.3078C15.458 22.9542 15.5985 22.615 15.8486 22.365C16.0986 22.1149 16.4377 21.9744 16.7914 21.9744C17.145 21.9744 17.4841 22.1149 17.7342 22.365C17.9842 22.615 18.1247 22.9542 18.1247 23.3078ZM10.1247 19.3078C10.4783 19.3078 10.8175 19.1673 11.0675 18.9173C11.3176 18.6672 11.458 18.3281 11.458 17.9744C11.458 17.6208 11.3176 17.2817 11.0675 17.0316C10.8175 16.7816 10.4783 16.6411 10.1247 16.6411C9.77107 16.6411 9.43194 16.7816 9.18189 17.0316C8.93184 17.2817 8.79136 17.6208 8.79136 17.9744C8.79136 18.3281 8.93184 18.6672 9.18189 18.9173C9.43194 19.1673 9.77107 19.3078 10.1247 19.3078ZM10.1247 24.6411C10.4783 24.6411 10.8175 24.5006 11.0675 24.2506C11.3176 24.0005 11.458 23.6614 11.458 23.3078C11.458 22.9542 11.3176 22.615 11.0675 22.365C10.8175 22.1149 10.4783 21.9744 10.1247 21.9744C9.77107 21.9744 9.43194 22.1149 9.18189 22.365C8.93184 22.615 8.79136 22.9542 8.79136 23.3078C8.79136 23.6614 8.93184 24.0005 9.18189 24.2506C9.43194 24.5006 9.77107 24.6411 10.1247 24.6411Z" fill="#2C3278"/>
</svg>
