<svg width="144" height="144" viewBox="0 0 144 144" fill="none" xmlns="http://www.w3.org/2000/svg">
<g opacity="0.5">
<path d="M42.2029 12.5873C44.6816 12.5873 46.6895 14.5178 46.6895 16.9011V25.6003C50.6697 25.5288 55.1325 25.5288 60.1554 25.5288H84.0781C89.095 25.5288 93.5578 25.5288 97.5379 25.6062V16.9071C97.5379 14.5237 99.5459 12.5873 102.025 12.5873C104.503 12.5873 106.511 14.5178 106.511 16.9011V25.9935C115.121 26.6549 120.775 28.2815 124.922 32.2796C129.081 36.2717 130.774 41.7057 131.459 49.9877L131.935 54.2956H12.7687V49.9818C13.4599 41.6997 15.1521 36.2657 19.305 32.2736C23.458 28.2815 29.1065 26.6489 37.7163 25.9876V16.9011C37.7163 14.5178 39.7242 12.5873 42.2029 12.5873Z" fill="#2C3278"/>
<path opacity="0.5" d="M131.935 84.0873V72.1707C131.935 67.1716 131.912 58.2579 131.834 54.2957H12.8283C12.7508 58.2579 12.7687 67.1716 12.7687 72.1707V84.0873C12.7687 106.556 12.7687 117.794 19.7519 124.771C26.735 131.748 37.9605 131.754 60.4354 131.754H84.2687C106.732 131.754 117.969 131.754 124.952 124.771C131.935 117.788 131.935 106.562 131.935 84.0873Z" fill="#2C3278"/>
<path d="M108.102 101.962C108.102 103.543 107.474 105.058 106.357 106.176C105.239 107.293 103.724 107.921 102.144 107.921C100.563 107.921 99.0479 107.293 97.9305 106.176C96.8131 105.058 96.1854 103.543 96.1854 101.962C96.1854 100.382 96.8131 98.8665 97.9305 97.7491C99.0479 96.6317 100.563 96.004 102.144 96.004C103.724 96.004 105.239 96.6317 106.357 97.7491C107.474 98.8665 108.102 100.382 108.102 101.962ZM108.102 78.129C108.102 79.7092 107.474 81.2248 106.357 82.3422C105.239 83.4596 103.724 84.0873 102.144 84.0873C100.563 84.0873 99.0479 83.4596 97.9305 82.3422C96.8131 81.2248 96.1854 79.7092 96.1854 78.129C96.1854 76.5487 96.8131 75.0332 97.9305 73.9158C99.0479 72.7984 100.563 72.1707 102.144 72.1707C103.724 72.1707 105.239 72.7984 106.357 73.9158C107.474 75.0332 108.102 76.5487 108.102 78.129ZM78.3104 101.962C78.3104 103.543 77.6826 105.058 76.5652 106.176C75.4478 107.293 73.9323 107.921 72.3521 107.921C70.7718 107.921 69.2563 107.293 68.1389 106.176C67.0215 105.058 66.3937 103.543 66.3937 101.962C66.3937 100.382 67.0215 98.8665 68.1389 97.7491C69.2563 96.6317 70.7718 96.004 72.3521 96.004C73.9323 96.004 75.4478 96.6317 76.5652 97.7491C77.6826 98.8665 78.3104 100.382 78.3104 101.962ZM78.3104 78.129C78.3104 79.7092 77.6826 81.2248 76.5652 82.3422C75.4478 83.4596 73.9323 84.0873 72.3521 84.0873C70.7718 84.0873 69.2563 83.4596 68.1389 82.3422C67.0215 81.2248 66.3937 79.7092 66.3937 78.129C66.3937 76.5487 67.0215 75.0332 68.1389 73.9158C69.2563 72.7984 70.7718 72.1707 72.3521 72.1707C73.9323 72.1707 75.4478 72.7984 76.5652 73.9158C77.6826 75.0332 78.3104 76.5487 78.3104 78.129ZM48.5187 101.962C48.5187 103.543 47.891 105.058 46.7736 106.176C45.6562 107.293 44.1406 107.921 42.5604 107.921C40.9801 107.921 39.4646 107.293 38.3472 106.176C37.2298 105.058 36.6021 103.543 36.6021 101.962C36.6021 100.382 37.2298 98.8665 38.3472 97.7491C39.4646 96.6317 40.9801 96.004 42.5604 96.004C44.1406 96.004 45.6562 96.6317 46.7736 97.7491C47.891 98.8665 48.5187 100.382 48.5187 101.962ZM48.5187 78.129C48.5187 79.7092 47.891 81.2248 46.7736 82.3422C45.6562 83.4596 44.1406 84.0873 42.5604 84.0873C40.9801 84.0873 39.4646 83.4596 38.3472 82.3422C37.2298 81.2248 36.6021 79.7092 36.6021 78.129C36.6021 76.5487 37.2298 75.0332 38.3472 73.9158C39.4646 72.7984 40.9801 72.1707 42.5604 72.1707C44.1406 72.1707 45.6562 72.7984 46.7736 73.9158C47.891 75.0332 48.5187 76.5487 48.5187 78.129Z" fill="#2C3278"/>
</g>
</svg>
