<svg width="26" height="27" viewBox="0 0 26 27" fill="none" xmlns="http://www.w3.org/2000/svg">
<path d="M7.51835 2.47803C7.96902 2.47803 8.3341 2.82903 8.3341 3.26236V4.84403C9.05777 4.83103 9.86919 4.83103 10.7824 4.83103H15.132C16.0442 4.83103 16.8556 4.83103 17.5793 4.84511V3.26344C17.5793 2.83011 17.9444 2.47803 18.395 2.47803C18.8457 2.47803 19.2108 2.82903 19.2108 3.26236V4.91553C20.7762 5.03578 21.8043 5.33153 22.5583 6.05844C23.3144 6.78428 23.6221 7.77228 23.7467 9.27811L23.8334 10.0614H2.16669V9.27703C2.29235 7.77119 2.60002 6.78319 3.3551 6.05736C4.11019 5.33153 5.13719 5.03469 6.7026 4.91444V3.26236C6.7026 2.82903 7.06769 2.47803 7.51835 2.47803Z" fill="#5370FF"/>
<path opacity="0.5" d="M23.8333 15.4779V13.3113C23.8333 12.4024 23.829 10.7817 23.8149 10.0613H2.17748C2.16339 10.7817 2.16664 12.4024 2.16664 13.3113V15.4779C2.16664 19.5632 2.16664 21.6064 3.43631 22.8749C4.70598 24.1435 6.74698 24.1446 10.8333 24.1446H15.1666C19.2508 24.1446 21.294 24.1446 22.5636 22.8749C23.8333 21.6053 23.8333 19.5643 23.8333 15.4779Z" fill="#5370FF"/>
<path d="M19.5 18.7279C19.5 19.0153 19.3859 19.2908 19.1827 19.494C18.9795 19.6971 18.704 19.8113 18.4167 19.8113C18.1293 19.8113 17.8538 19.6971 17.6506 19.494C17.4475 19.2908 17.3333 19.0153 17.3333 18.7279C17.3333 18.4406 17.4475 18.1651 17.6506 17.9619C17.8538 17.7587 18.1293 17.6446 18.4167 17.6446C18.704 17.6446 18.9795 17.7587 19.1827 17.9619C19.3859 18.1651 19.5 18.4406 19.5 18.7279ZM19.5 14.3946C19.5 14.6819 19.3859 14.9575 19.1827 15.1606C18.9795 15.3638 18.704 15.4779 18.4167 15.4779C18.1293 15.4779 17.8538 15.3638 17.6506 15.1606C17.4475 14.9575 17.3333 14.6819 17.3333 14.3946C17.3333 14.1073 17.4475 13.8317 17.6506 13.6286C17.8538 13.4254 18.1293 13.3113 18.4167 13.3113C18.704 13.3113 18.9795 13.4254 19.1827 13.6286C19.3859 13.8317 19.5 14.1073 19.5 14.3946ZM14.0833 18.7279C14.0833 19.0153 13.9692 19.2908 13.766 19.494C13.5629 19.6971 13.2873 19.8113 13 19.8113C12.7127 19.8113 12.4371 19.6971 12.234 19.494C12.0308 19.2908 11.9167 19.0153 11.9167 18.7279C11.9167 18.4406 12.0308 18.1651 12.234 17.9619C12.4371 17.7587 12.7127 17.6446 13 17.6446C13.2873 17.6446 13.5629 17.7587 13.766 17.9619C13.9692 18.1651 14.0833 18.4406 14.0833 18.7279ZM14.0833 14.3946C14.0833 14.6819 13.9692 14.9575 13.766 15.1606C13.5629 15.3638 13.2873 15.4779 13 15.4779C12.7127 15.4779 12.4371 15.3638 12.234 15.1606C12.0308 14.9575 11.9167 14.6819 11.9167 14.3946C11.9167 14.1073 12.0308 13.8317 12.234 13.6286C12.4371 13.4254 12.7127 13.3113 13 13.3113C13.2873 13.3113 13.5629 13.4254 13.766 13.6286C13.9692 13.8317 14.0833 14.1073 14.0833 14.3946ZM8.66667 18.7279C8.66667 19.0153 8.55253 19.2908 8.34937 19.494C8.1462 19.6971 7.87065 19.8113 7.58333 19.8113C7.29602 19.8113 7.02047 19.6971 6.8173 19.494C6.61414 19.2908 6.5 19.0153 6.5 18.7279C6.5 18.4406 6.61414 18.1651 6.8173 17.9619C7.02047 17.7587 7.29602 17.6446 7.58333 17.6446C7.87065 17.6446 8.1462 17.7587 8.34937 17.9619C8.55253 18.1651 8.66667 18.4406 8.66667 18.7279ZM8.66667 14.3946C8.66667 14.6819 8.55253 14.9575 8.34937 15.1606C8.1462 15.3638 7.87065 15.4779 7.58333 15.4779C7.29602 15.4779 7.02047 15.3638 6.8173 15.1606C6.61414 14.9575 6.5 14.6819 6.5 14.3946C6.5 14.1073 6.61414 13.8317 6.8173 13.6286C7.02047 13.4254 7.29602 13.3113 7.58333 13.3113C7.87065 13.3113 8.1462 13.4254 8.34937 13.6286C8.55253 13.8317 8.66667 14.1073 8.66667 14.3946Z" fill="#5370FF"/>
</svg>
