<svg width="371" height="380" viewBox="0 0 371 380" fill="none" xmlns="http://www.w3.org/2000/svg">
<path opacity="0.3" d="M255.409 182.136L259.633 247.317L331.418 265.155L262.243 287.6L266.467 352.781L219.491 301.472L150.316 323.917L190.458 269.762L143.482 218.453L215.267 236.292L255.409 182.136Z" fill="#2C3278"/>
<path opacity="0.3" d="M198.791 137.89L200.996 168.001L234.921 176.431L202.358 186.61L204.563 216.721L182.233 192.901L149.671 203.08L168.433 178.18L146.104 154.36L180.029 162.79L198.791 137.89Z" fill="#2C3278"/>
<path opacity="0.3" d="M331.227 183.192L333.131 208.683L361.968 215.849L334.309 224.438L336.214 249.929L317.214 229.746L289.555 238.334L305.472 217.272L286.473 197.089L315.31 204.254L331.227 183.192Z" fill="#2C3278"/>
<path opacity="0.3" d="M271.759 146.326L272.474 160L287.019 163.614L272.916 168.45L273.631 182.124L264.2 171.44L250.098 176.276L258.372 164.836L248.941 154.152L263.485 157.766L271.759 146.326Z" fill="#2C3278"/>
<path d="M218.056 333.548H0.695752C0.501967 333.548 0.345215 333.093 0.345215 332.533C0.345215 331.973 0.501967 331.518 0.695752 331.518H218.056C218.25 331.518 218.407 331.972 218.407 332.533C218.407 333.094 218.25 333.548 218.056 333.548Z" fill="#CBD7FF"/>
<path d="M213.864 42.937L270.466 0.0315418L303.809 35.9293L247.207 78.8348L213.864 42.937Z" fill="#090814"/>
<path d="M217.765 43.1926L270.067 3.54687L300.362 36.1629L248.061 75.8087L217.765 43.1926Z" fill="#FAFAFA"/>
<mask id="mask0_2357_3" style="mask-type:luminance" maskUnits="userSpaceOnUse" x="217" y="3" width="84" height="73">
<path d="M270.067 3.54686L217.765 43.1926L248.094 75.8446L300.395 36.1988L270.067 3.54686Z" fill="white"/>
</mask>
<g mask="url(#mask0_2357_3)">
<path d="M281.202 50.7479L248.217 75.7511C248.176 75.7829 248.132 75.8112 248.085 75.8357L241.233 39.8366C241.19 39.6127 241.212 39.3825 241.298 39.1689C241.384 38.9554 241.531 38.766 241.723 38.62C241.916 38.4739 242.148 38.3762 242.396 38.3368C242.644 38.2973 242.898 38.3175 243.135 38.3952L268.671 46.6795L269.894 47.0753L281.202 50.7479Z" fill="#E6E6E6"/>
<path d="M299.568 36.8266L271.038 58.4526L269.895 47.0783L269.812 46.2597L268.321 31.4369C268.316 31.1963 268.366 30.9575 268.469 30.7357C268.572 30.5139 268.726 30.314 268.919 30.1487C269.113 29.9835 269.342 29.8565 269.593 29.776C269.844 29.6955 270.111 29.6633 270.376 29.6812C270.448 29.6894 270.518 29.7018 270.588 29.7181L299.568 36.8266Z" fill="#E6E6E6"/>
<path d="M288.877 61.9307C288.4 62.4486 288.672 62.5541 288.672 62.5541L289.15 62.7382L286.65 60.8924L287.703 60.0552L289.858 61.8124C289.619 61.8509 289.125 61.6634 288.877 61.9307Z" fill="#FFB8B8"/>
<path d="M288.337 62.6489L288.502 62.3715C288.502 62.3715 288.23 62.2661 288.708 61.7482C288.909 61.5306 289.191 61.3858 289.501 61.3404L290.645 62.1926C290.645 62.1926 292.891 62.8284 291.664 63.7587C290.436 64.689 290.09 64.406 290.09 64.406L289.748 64.0382C289.748 64.0382 289.569 64.4079 289.178 64.0806C288.838 63.6658 288.582 63.2005 288.421 62.7058L288.337 62.6489Z" fill="#090814"/>
<path d="M281.565 67.4739C282.213 67.1388 282.28 67.3998 282.28 67.3998L282.398 67.8563L281.032 65.5409L279.724 66.1036L281.266 68.326C281.349 68.1201 281.23 67.6484 281.565 67.4739Z" fill="#FFB8B8"/>
<path d="M266.039 41.2837C266.901 40.6308 267.019 39.477 266.304 38.7066C265.588 37.9363 264.31 37.8411 263.448 38.494C262.587 39.147 262.469 40.3008 263.184 41.0711C263.9 41.8415 265.178 41.9367 266.039 41.2837Z" fill="#FFB8B8"/>
<path d="M264.962 41.438C264.962 41.438 266.153 42.2504 265.572 43.3138C264.992 44.3771 269.015 41.4841 269.015 41.4841C269.015 41.4841 267.15 41.2604 266.471 40.0603L264.962 41.438Z" fill="#FFB8B8"/>
<path d="M265.71 42.8982L264.055 44.7762L267.022 47.1262C267.022 47.1262 268.784 47.8955 268.892 48.6706C269.001 49.4457 269.632 49.2795 269.632 49.2795L274.446 46.0193C274.446 46.0193 274.745 45.4034 274.43 45.2519C273.757 44.6343 273.131 43.9759 272.557 43.2815C272.341 43.0121 272.149 42.7273 271.983 42.43L270.237 40.5971L268.681 41.4247C268.681 41.4247 268.177 42.2752 265.71 42.8982Z" fill="#5370FF"/>
<path d="M269.504 49.1411L275.87 60.6847L278.805 66.5658L283.021 65.007C283.021 65.007 278.382 54.1033 276.521 52.4741L285.938 62.7959L289.347 59.8999C289.347 59.8999 277.681 45.7493 274.191 45.7442L269.504 49.1411Z" fill="#090814"/>
<path d="M264.655 47.2048L266.318 50.7771C266.383 50.8984 266.475 51.0066 266.587 51.0954C266.699 51.1843 266.83 51.2518 266.972 51.2942C267.378 51.428 270.261 52.1366 271.344 52.4023C271.39 52.4132 271.438 52.4139 271.485 52.4044C271.531 52.3949 271.575 52.3756 271.611 52.3479C271.648 52.3202 271.676 52.285 271.695 52.2453C271.713 52.2056 271.721 52.1625 271.717 52.1195L271.594 50.8297C271.594 50.8297 272.506 50.6841 272.531 50.4312C272.541 50.3358 272.322 50.3257 272.047 50.3494C271.424 50.4074 270.828 50.611 270.318 50.9402L270.31 50.9466L267.664 50.0679L266.529 46.8761L264.655 47.2048Z" fill="#FFB8B8"/>
<path d="M264.592 44.603L264.244 44.5617L264.056 44.7768C263.951 44.9839 263.898 45.2092 263.898 45.4369C263.899 45.6647 263.955 45.8896 264.061 46.0961C264.4 46.9302 264.899 48.9681 264.899 48.9681L267.198 48.6286L266.428 46.0168L264.592 44.603Z" fill="#5370FF"/>
<path d="M272.942 41.3515L276.561 43.3245C276.682 43.4037 276.784 43.5039 276.861 43.6193C276.939 43.7347 276.99 43.8629 277.011 43.9964C277.087 44.381 277.359 47.0686 277.46 48.0778C277.464 48.1207 277.456 48.1638 277.438 48.2035C277.419 48.2433 277.39 48.2784 277.354 48.3061C277.317 48.3338 277.274 48.3532 277.228 48.3626C277.181 48.3721 277.133 48.3714 277.087 48.3605L275.702 48.0275C275.702 48.0275 275.385 48.8137 275.105 48.7916C274.999 48.7836 275.026 48.5883 275.1 48.3471C275.271 47.8027 275.596 47.308 276.044 46.9116L276.052 46.9052L275.555 44.3989L272.271 42.8347L272.942 41.3515Z" fill="#FFB8B8"/>
<path d="M270.105 40.9695L270.12 40.653L270.387 40.5233C270.631 40.466 270.886 40.4573 271.134 40.4976C271.383 40.5379 271.618 40.6263 271.825 40.7568C272.828 41.2095 273.857 41.6132 274.908 41.9661L273.926 43.7235L271.442 42.6443L270.105 40.9695Z" fill="#5370FF"/>
<path d="M263.071 38.1135C263.071 38.1135 261.236 39.0694 262.135 40.5647C262.342 40.9131 262.576 41.2479 262.835 41.5666C263.478 42.3417 263.922 43.2362 264.135 44.1854L267.323 42.9007C267.323 42.9007 265.736 42.45 265.47 41.9541C265.396 41.8356 265.297 41.7316 265.178 41.6481C264.777 41.7044 264.367 41.634 264.016 41.4487C263.666 41.2634 263.397 40.9746 263.255 40.631C263.112 40.2857 263.103 39.9064 263.231 39.5561C263.359 39.2058 263.616 38.9056 263.959 38.7052C264.301 38.5048 264.71 38.4164 265.116 38.4545C265.522 38.4927 265.901 38.6551 266.191 38.9149C266.479 39.1748 266.66 39.5163 266.702 39.8821C266.744 40.2478 266.645 40.6155 266.422 40.9233C266.45 41.1651 266.553 41.3948 266.72 41.5859C266.886 41.777 267.109 41.9217 267.362 42.0032C268.021 42.1126 268.695 42.1307 269.36 42.0569C269.36 42.0569 267.937 41.0454 267.727 39.9852C267.517 38.9251 264.877 36.9183 263.071 38.1135Z" fill="#090814"/>
<path d="M266.015 38.675L263.464 40.8478L262.347 39.7801L264.61 37.9371L266.015 38.675Z" fill="#090814"/>
<path d="M282.441 67.1178L282.111 67.2171C282.111 67.2171 282.043 66.9565 281.396 67.2912C281.123 67.4328 280.916 67.6583 280.813 67.9265L281.542 69.0902C281.542 69.0902 281.845 71.1989 283.072 70.2686C284.299 69.3382 284.051 68.9811 284.051 68.9811L283.711 68.6151C283.711 68.6151 284.146 68.5196 283.857 68.1153C283.463 67.7417 283 67.4335 282.488 67.2046L282.441 67.1178Z" fill="#090814"/>
</g>
<path d="M232.35 24.1646L230.353 24.1812L205.751 24.3576L203.754 24.3721C202.784 24.3801 201.858 24.7352 201.178 25.3595C200.497 25.9838 200.119 26.8264 200.126 27.7023L200.396 58.0369C200.405 58.9128 200.798 59.7496 201.489 60.3639C202.18 60.9783 203.113 61.3199 204.082 61.3139L204.087 61.3149L232.674 61.1065L232.679 61.1075C233.648 61.0995 234.575 60.7444 235.255 60.1201C235.935 59.4958 236.314 58.6533 236.307 57.7773L236.037 27.4415C236.028 26.5656 235.635 25.7288 234.944 25.1145C234.253 24.5002 233.32 24.1585 232.35 24.1646Z" fill="#F2F2F2"/>
<path d="M232.358 25.1157L229.993 25.1328L206.126 25.3059L203.761 25.3231C203.071 25.3288 202.411 25.5816 201.927 26.0262C201.442 26.4708 201.173 27.0708 201.178 27.6945L201.448 58.0293C201.454 58.653 201.734 59.2491 202.226 59.6866C202.718 60.1242 203.383 60.3675 204.073 60.3633L204.078 60.3644L232.665 60.1575L232.669 60.1586C233.36 60.1527 234.02 59.8998 234.504 59.4552C234.988 59.0106 235.257 58.4107 235.252 57.787L234.984 27.4491C234.977 26.8254 234.697 26.2295 234.205 25.7921C233.713 25.3547 233.049 25.1114 232.358 25.1157Z" fill="white"/>
<path d="M228.133 33.9674L213.672 34.0721C213.513 34.0694 213.362 34.0109 213.25 33.9089C213.138 33.8069 213.075 33.6696 213.074 33.5261C213.073 33.3827 213.134 33.2445 213.244 33.141C213.353 33.0375 213.504 32.9768 213.662 32.972L228.124 32.8673C228.205 32.8652 228.286 32.8777 228.361 32.9041C228.437 32.9305 228.506 32.9703 228.564 33.0211C228.623 33.0719 228.669 33.1327 228.701 33.2C228.733 33.2673 228.75 33.3396 228.751 33.4129C228.751 33.4861 228.736 33.5587 228.705 33.6264C228.674 33.6942 228.629 33.7557 228.571 33.8073C228.514 33.859 228.445 33.8998 228.37 33.9273C228.295 33.9548 228.214 33.9684 228.133 33.9674Z" fill="#F2F2F2"/>
<path d="M230.662 35.8059L213.689 35.9292C213.608 35.9314 213.527 35.9188 213.451 35.8924C213.376 35.866 213.307 35.8263 213.248 35.7755C213.19 35.7246 213.143 35.6638 213.111 35.5965C213.079 35.5293 213.063 35.4569 213.062 35.3837C213.061 35.3104 213.077 35.2378 213.108 35.1701C213.138 35.1023 213.184 35.0408 213.241 34.9892C213.299 34.9375 213.367 34.8967 213.442 34.8692C213.517 34.8417 213.598 34.828 213.679 34.829L230.652 34.7057C230.811 34.7075 230.963 34.7657 231.076 34.8677C231.188 34.9697 231.252 35.1075 231.253 35.2514C231.255 35.3954 231.193 35.534 231.083 35.6377C230.972 35.7414 230.821 35.8018 230.662 35.8059Z" fill="#F2F2F2"/>
<path d="M228.207 42.2887L213.746 42.3934C213.587 42.3907 213.436 42.3321 213.324 42.2302C213.213 42.1282 213.149 41.9908 213.148 41.8474C213.147 41.704 213.208 41.5658 213.318 41.4623C213.428 41.3588 213.578 41.2981 213.737 41.2933L228.198 41.1886C228.279 41.1865 228.36 41.199 228.435 41.2254C228.511 41.2518 228.58 41.2915 228.638 41.3424C228.697 41.3932 228.743 41.454 228.775 41.5213C228.807 41.5885 228.824 41.6609 228.825 41.7341C228.826 41.8074 228.81 41.88 228.779 41.9477C228.748 42.0155 228.703 42.077 228.645 42.1286C228.588 42.1803 228.52 42.2211 228.445 42.2486C228.369 42.2761 228.288 42.2897 228.207 42.2887Z" fill="#F2F2F2"/>
<path d="M230.736 44.1268L213.763 44.2501C213.604 44.2482 213.451 44.19 213.339 44.088C213.227 43.986 213.163 43.8482 213.162 43.7043C213.16 43.5604 213.222 43.4217 213.332 43.318C213.443 43.2144 213.594 43.154 213.753 43.1498L230.726 43.026C230.886 43.0278 231.038 43.086 231.15 43.188C231.263 43.29 231.326 43.4278 231.328 43.5717C231.329 43.7157 231.268 43.8543 231.157 43.958C231.047 44.0617 230.895 44.1226 230.736 44.1268Z" fill="#F2F2F2"/>
<path d="M228.282 50.6101L213.82 50.7147C213.739 50.7169 213.659 50.7043 213.583 50.6779C213.508 50.6515 213.439 50.6118 213.38 50.561C213.322 50.5101 213.275 50.4493 213.243 50.382C213.211 50.3148 213.194 50.2424 213.194 50.1692C213.193 50.0959 213.209 50.0233 213.239 49.9556C213.27 49.8878 213.316 49.8263 213.373 49.7747C213.431 49.723 213.499 49.6822 213.574 49.6547C213.649 49.6272 213.73 49.6135 213.811 49.6145L228.272 49.5098C228.353 49.5077 228.434 49.5202 228.509 49.5466C228.585 49.573 228.654 49.6127 228.712 49.6636C228.771 49.7144 228.817 49.7752 228.849 49.8425C228.881 49.9097 228.898 49.9821 228.899 50.0554C228.899 50.1286 228.884 50.2012 228.853 50.2689C228.822 50.3367 228.777 50.3982 228.719 50.4498C228.662 50.5015 228.594 50.5423 228.518 50.5698C228.443 50.5973 228.363 50.611 228.282 50.6101Z" fill="#F2F2F2"/>
<path d="M230.809 52.4488L213.836 52.572C213.755 52.5742 213.674 52.5617 213.599 52.5353C213.523 52.5089 213.454 52.4691 213.396 52.4183C213.337 52.3675 213.291 52.3066 213.259 52.2394C213.227 52.1721 213.21 52.0997 213.209 52.0265C213.209 51.9533 213.224 51.8806 213.255 51.8129C213.286 51.7452 213.331 51.6837 213.389 51.632C213.446 51.5803 213.515 51.5396 213.59 51.512C213.665 51.4845 213.745 51.4708 213.826 51.4718L230.799 51.3485C230.959 51.3503 231.111 51.4085 231.223 51.5105C231.336 51.6126 231.399 51.7503 231.401 51.8943C231.402 52.0382 231.341 52.1769 231.23 52.2805C231.12 52.3842 230.969 52.4446 230.809 52.4488Z" fill="#F2F2F2"/>
<path d="M210.457 36.7949L205.34 36.8322C205.262 36.8326 205.188 36.8052 205.133 36.7562C205.078 36.7072 205.046 36.6404 205.045 36.5705L205.008 32.4551C205.008 32.3852 205.038 32.318 205.092 32.2682C205.147 32.2184 205.221 32.19 205.298 32.1893L210.416 32.1521C210.493 32.1517 210.567 32.179 210.623 32.228C210.678 32.277 210.709 32.3438 210.71 32.4137L210.744 36.5269C210.745 36.5967 210.716 36.6642 210.662 36.7144C210.608 36.7647 210.535 36.7936 210.457 36.7949Z" fill="#E6E6E6"/>
<path d="M210.531 45.1167L205.413 45.1539C205.336 45.1545 205.261 45.1272 205.206 45.0782C205.151 45.0291 205.12 44.9623 205.119 44.8923L205.082 40.7768C205.082 40.707 205.112 40.6398 205.166 40.59C205.22 40.5402 205.294 40.5118 205.372 40.5111L210.489 40.4738C210.567 40.4734 210.641 40.5007 210.696 40.5498C210.751 40.5988 210.783 40.6656 210.784 40.7354L210.818 44.8486C210.819 44.9185 210.79 44.986 210.736 45.0362C210.682 45.0864 210.608 45.1154 210.531 45.1167Z" fill="#E6E6E6"/>
<path d="M210.605 53.438L205.487 53.4752C205.41 53.4756 205.335 53.4483 205.28 53.3993C205.225 53.3503 205.194 53.2835 205.193 53.2136L205.156 49.0981C205.155 49.0282 205.186 48.961 205.24 48.9112C205.294 48.8614 205.368 48.8331 205.445 48.8324L210.563 48.7951C210.64 48.7947 210.715 48.822 210.77 48.8711C210.825 48.9201 210.857 48.9869 210.857 49.0567L210.892 53.1699C210.893 53.2398 210.863 53.3073 210.809 53.3575C210.756 53.4077 210.682 53.4367 210.605 53.438Z" fill="#E6E6E6"/>
<path d="M249.096 35.6101L221.348 29.3601C220.406 29.1492 219.411 29.2841 218.58 29.7352C217.749 30.1863 217.15 30.9169 216.914 31.7665L208.79 61.2012C208.557 62.0513 208.706 62.9504 209.206 63.7012C209.705 64.4521 210.514 64.9933 211.454 65.2062L239.203 71.4562C240.144 71.6671 241.139 71.5322 241.97 71.0811C242.801 70.6299 243.401 69.8994 243.636 69.0498L251.76 39.6151C251.994 38.7649 251.844 37.8659 251.345 37.115C250.845 36.3642 250.037 35.823 249.096 35.6101Z" fill="#E6E6E6"/>
<path d="M248.842 36.5331L221.093 30.283C220.423 30.1329 219.714 30.2289 219.123 30.5502C218.531 30.8715 218.104 31.3917 217.936 31.9967L209.812 61.4314C209.646 62.0368 209.753 62.677 210.108 63.2117C210.464 63.7464 211.04 64.1318 211.709 64.2834L239.458 70.5334C240.128 70.6836 240.837 70.5875 241.429 70.2663C242.021 69.945 242.447 69.4248 242.615 68.8198L250.739 39.3851C250.905 38.7797 250.799 38.1394 250.443 37.6048C250.088 37.0701 249.512 36.6847 248.842 36.5331Z" fill="white"/>
<path d="M240.201 51.767L226.169 48.6065C226.013 48.5712 225.878 48.4811 225.795 48.356C225.711 48.2309 225.687 48.0811 225.726 47.9394C225.765 47.7978 225.864 47.6761 226.003 47.6009C226.141 47.5257 226.307 47.5033 226.464 47.5386L240.496 50.6992C240.653 50.7345 240.788 50.8246 240.871 50.9497C240.954 51.0748 240.979 51.2246 240.94 51.3662C240.901 51.5079 240.801 51.6296 240.662 51.7048C240.524 51.78 240.358 51.8024 240.201 51.767Z" fill="#E6E6E6"/>
<path d="M242.142 54.1176L225.672 50.408C225.516 50.3727 225.381 50.2826 225.297 50.1575C225.214 50.0324 225.19 49.8826 225.229 49.741C225.268 49.5994 225.367 49.4776 225.506 49.4024C225.644 49.3272 225.81 49.3048 225.967 49.3402L242.434 53.0493C242.591 53.0846 242.726 53.1747 242.809 53.2998C242.892 53.4249 242.917 53.5747 242.878 53.7163C242.839 53.8579 242.739 53.9797 242.601 54.0549C242.462 54.13 242.297 54.1524 242.14 54.1171L242.142 54.1176Z" fill="#E6E6E6"/>
<path d="M237.973 59.8413L223.941 56.6807C223.784 56.6454 223.649 56.5553 223.566 56.4302C223.483 56.3051 223.458 56.1553 223.497 56.0137C223.536 55.8721 223.636 55.7503 223.774 55.6751C223.913 55.5999 224.078 55.5776 224.235 55.6129L238.267 58.7734C238.424 58.8087 238.559 58.8988 238.642 59.0239C238.725 59.149 238.75 59.2989 238.711 59.4405C238.672 59.5821 238.572 59.7039 238.434 59.779C238.295 59.8542 238.129 59.8766 237.973 59.8413Z" fill="#E6E6E6"/>
<path d="M239.913 62.1916L223.443 58.482C223.286 58.4467 223.151 58.3566 223.068 58.2315C222.985 58.1064 222.96 57.9565 222.999 57.8149C223.038 57.6733 223.138 57.5515 223.277 57.4764C223.415 57.4012 223.581 57.3788 223.738 57.4141L240.205 61.1232C240.362 61.1585 240.497 61.2486 240.58 61.3737C240.663 61.4988 240.688 61.6487 240.649 61.7903C240.61 61.9319 240.51 62.0537 240.372 62.1288C240.233 62.204 240.067 62.2264 239.911 62.1911L239.913 62.1916Z" fill="#E6E6E6"/>
<path d="M222.303 50.5175L217.337 49.399C217.262 49.3819 217.198 49.3387 217.158 49.2788C217.118 49.2189 217.106 49.1472 217.125 49.0793L218.227 45.086C218.246 45.0182 218.294 44.9599 218.36 44.9239C218.426 44.8879 218.506 44.8771 218.581 44.8939L223.547 46.0124C223.622 46.0295 223.686 46.0727 223.726 46.1326C223.766 46.1925 223.778 46.2642 223.759 46.3321L222.657 50.3254C222.638 50.3932 222.591 50.4515 222.524 50.4875C222.458 50.5235 222.378 50.5343 222.303 50.5175Z" fill="#E6E6E6"/>
<path d="M220.075 58.592L215.109 57.4734C215.034 57.4564 214.969 57.4132 214.929 57.3533C214.889 57.2934 214.877 57.2216 214.896 57.1538L215.998 53.1604C216.017 53.0926 216.065 53.0344 216.131 52.9984C216.197 52.9624 216.277 52.9516 216.352 52.9683L221.318 54.0869C221.393 54.1039 221.458 54.1471 221.497 54.207C221.537 54.267 221.549 54.3387 221.531 54.4065L220.428 58.3999C220.419 58.4335 220.403 58.4651 220.38 58.493C220.357 58.5208 220.328 58.5443 220.296 58.5621C220.263 58.58 220.226 58.5918 220.188 58.5969C220.15 58.602 220.112 58.6004 220.075 58.592Z" fill="#E6E6E6"/>
<path d="M242.698 42.7818L232.352 40.4517C232.196 40.4164 232.061 40.3263 231.978 40.2012C231.894 40.0761 231.87 39.9263 231.909 39.7847C231.948 39.6431 232.048 39.5213 232.186 39.4461C232.325 39.3709 232.49 39.3485 232.647 39.3839L242.992 41.714C243.149 41.7493 243.284 41.8394 243.367 41.9645C243.45 42.0896 243.475 42.2394 243.436 42.381C243.397 42.5226 243.297 42.6444 243.159 42.7196C243.02 42.7947 242.854 42.8171 242.698 42.7818Z" fill="#CCCCCC"/>
<path d="M244.638 45.1327L231.855 42.2535C231.698 42.2182 231.563 42.128 231.48 42.003C231.397 41.8779 231.372 41.728 231.411 41.5864C231.45 41.4448 231.55 41.323 231.689 41.2479C231.827 41.1727 231.993 41.1503 232.15 41.1856L244.933 44.0648C245.089 44.1001 245.224 44.1902 245.307 44.3153C245.391 44.4404 245.415 44.5903 245.376 44.7319C245.337 44.8735 245.237 44.9953 245.099 45.0704C244.961 45.1456 244.795 45.168 244.638 45.1327Z" fill="#CCCCCC"/>
<path d="M228.963 43.921L219.425 41.7729C219.388 41.7644 219.353 41.7493 219.322 41.7285C219.291 41.7077 219.265 41.6816 219.245 41.6517C219.225 41.6218 219.212 41.5887 219.207 41.5543C219.201 41.5198 219.204 41.4847 219.213 41.451L221.068 34.7285C221.087 34.6607 221.135 34.6025 221.202 34.5665C221.268 34.5305 221.347 34.5197 221.422 34.5365L230.96 36.6846C231.035 36.7017 231.099 36.7449 231.139 36.8048C231.179 36.8647 231.191 36.9364 231.172 37.0043L229.317 43.7268C229.308 43.7606 229.291 43.7925 229.269 43.8206C229.246 43.8486 229.217 43.8724 229.184 43.8904C229.151 43.9085 229.115 43.9205 229.077 43.9257C229.039 43.931 229 43.9294 228.963 43.921Z" fill="#5370FF"/>
<path d="M178.507 99.2254C176.287 100.242 173.83 100.764 171.341 100.748L162.384 104.589L136.42 116.728L121.847 118.617L120.399 108.179L156.327 95.5606L166.469 91.7671C167.98 89.9789 169.942 88.5438 172.193 87.582C177.785 85.1045 183.732 85.7051 185.477 88.9194C187.221 92.1337 184.102 96.7485 178.507 99.2254Z" fill="#ED9DA0"/>
<path d="M66.0599 78.0509L85.1074 65.5511L123.931 102.197L158.891 92.9923L165.656 105.383C165.89 105.81 123.741 128.841 121.874 128.079C120.008 127.317 66.0599 78.0509 66.0599 78.0509Z" fill="#DEDEDE"/>
<path d="M102.865 44.8328H84.945V76.2568H102.865V44.8328Z" fill="#ED9DA0"/>
<path d="M132.449 132.397L89.2287 129.54C89.2287 129.54 71.3091 166.678 85.0123 190.484L94.5016 239.998L90.75 321.5H110.38L140.882 190.483L132.449 132.397Z" fill="#2F2E41"/>
<path d="M124.016 173.991L140.882 187.253L132.449 317.132H113.472L124.016 173.991Z" fill="#2F2E41"/>
<path d="M116.067 30.7709C116.067 34.7736 114.753 38.6864 112.291 42.0145C109.83 45.3427 106.331 47.9366 102.237 49.4684C98.1437 51.0001 93.6393 51.4009 89.2937 50.62C84.948 49.8392 80.9562 47.9117 77.8232 45.0813C74.6901 42.251 72.5565 38.645 71.6921 34.7192C70.8277 30.7934 71.2713 26.7242 72.9669 23.0262C74.6625 19.3282 77.5339 16.1674 81.218 13.9437C84.9021 11.7199 89.2334 10.533 93.6642 10.533C96.6061 10.533 99.5193 11.0564 102.237 12.0735C104.955 13.0905 107.425 14.5813 109.505 16.4605C111.585 18.3398 113.236 20.5708 114.361 23.0262C115.487 25.4816 116.067 28.1132 116.067 30.7709Z" fill="#ED9DA0"/>
<path d="M90.9795 302.16L114.123 305.462L118.472 320.46C118.472 320.46 137.263 326.848 128.209 333.789C119.155 340.731 85.706 337.142 83.0615 332.163C80.417 327.183 90.9795 302.16 90.9795 302.16Z" fill="#2F2E41"/>
<path d="M109.953 302.16L133.096 305.462L137.446 320.46C137.446 320.46 156.237 326.848 147.183 333.79C138.128 340.731 104.679 337.142 102.035 332.163C99.3904 327.183 109.954 302.159 109.954 302.159L109.953 302.16Z" fill="#2F2E41"/>
<path d="M104.515 56.6934H82.3367L74.9969 76.6905L89.2272 129.541L132.446 132.397L129.81 110.972C132.305 107.309 133.539 103.06 133.355 98.763C133.172 94.4659 131.579 90.3151 128.779 86.8373L104.512 56.6939L104.515 56.6934Z" fill="#DEDEDE"/>
<path d="M104.849 19.0376C107.601 23.0713 105.064 28.3839 101.673 31.9989C98.2824 35.6138 93.9111 38.7872 92.3973 43.3237C91.0395 47.3936 92.2738 51.778 93.871 55.7737C95.4682 59.7695 97.4505 63.7541 97.6159 67.9996C97.7813 72.2451 95.5564 76.9338 91.1296 78.3695C86.5868 79.8402 81.2163 77.5287 76.8414 79.3674C71.142 81.7647 69.8509 90.0534 63.6374 90.9125C59.8111 91.4416 56.2699 88.4466 55.2016 85.0881C54.1333 81.7296 54.9004 78.1448 55.6731 74.7183L62.0223 46.5752L67.3058 23.1594C68.3549 18.4991 69.6047 13.5143 73.4822 10.2957C78.2201 6.36353 85.3617 6.27042 91.79 6.50458C97.6961 6.7209 103.84 7.08608 108.983 9.72036C114.125 12.3546 117.901 17.9544 116.122 23.0451C115.224 21.2741 113.644 19.8584 111.677 19.0616C109.709 18.2648 107.488 18.1414 105.428 18.7143" fill="#090814"/>
<path d="M181.76 52.5979L181.524 52.3516C181.452 52.2767 174.324 44.7568 174.347 35.6372C174.37 26.5176 181.533 19.0271 181.605 18.9525L181.842 18.7075L182.079 18.9538C182.151 19.0287 189.278 26.5486 189.256 35.6682C189.233 44.7878 182.069 52.279 181.996 52.3532L181.76 52.5979ZM188.604 34.7962C188.161 27.1321 175.396 27.1223 174.999 34.7889C174.984 35.0699 174.976 35.3527 174.976 35.6373C174.955 43.5994 180.535 50.3346 181.761 51.7162C182.995 50.3373 188.607 43.6272 188.628 35.665C188.629 35.3764 188.621 35.0874 188.604 34.7978L188.604 34.7962Z" fill="#3F3D56"/>
<path d="M165.778 41.2805C170.848 49.1672 181.132 52.3203 181.132 52.3203C181.132 52.3203 183.194 42.6884 178.127 34.8015C173.06 26.9147 162.773 23.7618 162.773 23.7618C162.773 23.7618 160.708 33.3939 165.778 41.2805Z" fill="#5370FF"/>
<path d="M181.864 52.448L181.511 52.515C181.404 52.5358 170.664 54.5073 161.855 50.0548C153.045 45.6024 149.282 36.3053 149.247 36.211L149.125 35.905L149.478 35.8381C149.586 35.8172 160.325 33.8458 169.134 38.2984C177.943 42.7509 181.708 52.0478 181.742 52.1422L181.864 52.448ZM162.162 49.5596C169.856 53.4514 179.08 52.3142 181.016 52.0185C180.282 50.3738 176.52 42.683 168.825 38.7912C168.55 38.6524 168.273 38.5197 167.994 38.3932C160.403 34.9485 154.156 45.0031 161.334 49.109C161.605 49.2664 161.881 49.4162 162.162 49.5585L162.162 49.5596Z" fill="#3F3D56"/>
<path d="M184.657 34.7488C179.494 42.5856 181.444 52.2376 181.444 52.2376C181.444 52.2376 191.766 49.184 196.929 41.3472C202.092 33.5104 200.144 23.858 200.144 23.858C200.144 23.858 189.821 26.9114 184.657 34.7488Z" fill="#3F3D56"/>
<path d="M172.529 52.5841L189.911 48.3741C191.993 47.8702 194.211 48.1339 196.077 49.1072C197.944 50.0806 199.306 51.6838 199.864 53.5643C201.026 57.4808 202.786 72.2816 198.45 73.3316L177.294 78.9992C172.959 80.0492 167.945 65.4935 166.782 61.5771C166.506 60.6457 166.435 59.6743 166.574 58.7183C166.714 57.7622 167.06 56.8403 167.594 56.0052C168.127 55.1701 168.838 54.4382 169.685 53.8512C170.531 53.2642 171.498 52.8336 172.529 52.5841Z" fill="#E6E6E6"/>
<path d="M270.58 74.6646L273.1 68.596L273.19 68.5492L293.49 58.0678C293.766 57.9267 294.07 57.836 294.385 57.8011C294.7 57.7662 295.02 57.7877 295.326 57.8644C295.632 57.9411 295.918 58.0714 296.168 58.248C296.418 58.4246 296.627 58.6439 296.783 58.8935C296.94 59.1431 297.04 59.4181 297.079 59.7027C297.117 59.9873 297.093 60.276 297.009 60.5523C296.924 60.8286 296.779 61.087 296.584 61.313C296.388 61.5389 296.146 61.7278 295.869 61.869L270.58 74.6646Z" fill="#5370FF"/>
<path d="M167.406 74.6644L142.119 61.8721C141.842 61.7309 141.599 61.5419 141.404 61.3159C141.208 61.09 141.064 60.8314 140.979 60.555C140.894 60.2786 140.87 59.9899 140.909 59.7052C140.948 59.4205 141.048 59.1455 141.204 58.8958C141.36 58.6461 141.57 58.4267 141.82 58.2501C142.07 58.0735 142.356 57.9431 142.662 57.8664C142.968 57.7897 143.288 57.7682 143.603 57.8031C143.918 57.838 144.222 57.9286 144.499 58.0698L164.89 68.5958L167.406 74.6644Z" fill="#5370FF"/>
<path d="M271.326 75.4177H167.502L158.767 57.7822H280.055L271.326 75.4177Z" fill="#5370FF"/>
<path opacity="0.052" d="M271.326 75.4177H167.502L158.767 57.7822H280.055L271.326 75.4177Z" fill="#090814"/>
<path d="M165.309 74.0176V129.535C165.309 131.115 167.252 132.396 169.645 132.398H268.877C271.271 132.398 273.211 131.115 273.213 129.535V74.0176H165.309Z" fill="#5370FF"/>
<path d="M179.639 132.033C177.152 132.058 174.694 131.544 172.471 130.535L162.563 130.4L133.351 130.913L119.363 126.787L123.173 116.852L161.556 119.889L172.504 120.54C174.733 119.54 177.194 119.038 179.683 119.075C185.908 119.088 190.945 122.001 190.935 125.579C190.924 129.158 185.87 132.047 179.641 132.033L179.639 132.033Z" fill="#ED9DA0"/>
<path d="M90.8298 68.1203L114.02 64.5237L130.885 112.876L166.725 118.589V132.397C166.725 132.873 117.674 136.682 116.374 135.254C115.073 133.826 90.8298 68.1203 90.8298 68.1203Z" fill="#DEDEDE"/>
</svg>
