<svg width="634" height="491" viewBox="0 0 634 491" fill="none" xmlns="http://www.w3.org/2000/svg">
<g clip-path="url(#clip0_2302_729)">
<path d="M33.1852 182.4C24.425 182.4 16.0236 185.744 9.82917 191.697C3.63476 197.649 0.154785 205.722 0.154785 214.14C0.154785 222.558 3.63476 230.631 9.82917 236.584C16.0236 242.536 24.425 245.88 33.1852 245.88H279.342C288.102 245.88 296.504 242.536 302.698 236.584C308.893 230.631 312.373 222.558 312.373 214.14C312.373 205.722 308.893 197.649 302.698 191.697C296.504 185.744 288.102 182.4 279.342 182.4H33.1852Z" fill="#E5E5E5"/>
<path d="M33.1852 188.823C26.1979 188.823 19.4967 191.49 14.556 196.238C9.61516 200.986 6.83942 207.425 6.83942 214.14C6.83942 220.854 9.61516 227.293 14.556 232.041C19.4967 236.789 26.1979 239.456 33.1852 239.456H279.341C286.328 239.456 293.029 236.789 297.97 232.041C302.911 227.293 305.686 220.854 305.686 214.14C305.686 207.425 302.911 200.986 297.97 196.238C293.029 191.49 286.328 188.823 279.341 188.823H33.1852Z" fill="white"/>
<path d="M87.5575 229.278H38.5818C38.4243 229.282 38.2676 229.255 38.1209 229.2C37.9742 229.145 37.8405 229.062 37.7277 228.956C37.6148 228.851 37.5252 228.724 37.4639 228.585C37.4027 228.445 37.3712 228.296 37.3712 228.144C37.3712 227.993 37.4027 227.843 37.4639 227.703C37.5252 227.564 37.6148 227.438 37.7277 227.332C37.8405 227.226 37.9742 227.144 38.1209 227.088C38.2676 227.033 38.4243 227.007 38.5818 227.011H87.5575C87.8651 227.018 88.1574 227.141 88.3722 227.353C88.5869 227.565 88.7071 227.849 88.7071 228.144C88.7071 228.44 88.5869 228.724 88.3722 228.936C88.1574 229.147 87.8651 229.27 87.5575 229.278Z" fill="#5370FF"/>
<path d="M149.687 229.655H100.711C100.398 229.655 100.098 229.536 99.8767 229.323C99.6555 229.111 99.5312 228.822 99.5312 228.522C99.5312 228.221 99.6555 227.933 99.8767 227.72C100.098 227.508 100.398 227.388 100.711 227.388H149.687C149.999 227.388 150.3 227.508 150.521 227.72C150.742 227.933 150.866 228.221 150.866 228.522C150.866 228.822 150.742 229.111 150.521 229.323C150.3 229.536 149.999 229.655 149.687 229.655Z" fill="#5370FF"/>
<path d="M211.816 230.034H162.84C162.532 230.026 162.24 229.903 162.025 229.692C161.811 229.48 161.69 229.196 161.69 228.9C161.69 228.605 161.811 228.321 162.025 228.109C162.24 227.897 162.532 227.774 162.84 227.767H211.816C212.129 227.767 212.429 227.886 212.65 228.099C212.871 228.311 212.995 228.6 212.995 228.9C212.995 229.201 212.871 229.489 212.65 229.702C212.429 229.914 212.129 230.034 211.816 230.034Z" fill="#5370FF"/>
<path d="M273.944 230.412H224.968C224.655 230.412 224.355 230.292 224.134 230.08C223.913 229.867 223.789 229.579 223.789 229.278C223.789 228.977 223.913 228.689 224.134 228.477C224.355 228.264 224.655 228.145 224.968 228.145H273.944C274.252 228.152 274.544 228.275 274.759 228.487C274.973 228.698 275.094 228.982 275.094 229.278C275.094 229.574 274.973 229.858 274.759 230.07C274.544 230.281 274.252 230.404 273.944 230.412Z" fill="#5370FF"/>
<path d="M62.9625 218.846C67.9899 218.846 72.0654 214.929 72.0654 210.098C72.0654 205.267 67.9899 201.351 62.9625 201.351C57.9351 201.351 53.8596 205.267 53.8596 210.098C53.8596 214.929 57.9351 218.846 62.9625 218.846Z" fill="#5370FF"/>
<path d="M125.467 218.846C130.495 218.846 134.57 214.929 134.57 210.098C134.57 205.267 130.495 201.351 125.467 201.351C120.44 201.351 116.364 205.267 116.364 210.098C116.364 214.929 120.44 218.846 125.467 218.846Z" fill="#5370FF"/>
<path d="M187.971 218.846C192.999 218.846 197.074 214.929 197.074 210.098C197.074 205.267 192.999 201.351 187.971 201.351C182.944 201.351 178.868 205.267 178.868 210.098C178.868 214.929 182.944 218.846 187.971 218.846Z" fill="#5370FF"/>
<path d="M250.475 218.846C255.503 218.846 259.578 214.929 259.578 210.098C259.578 205.267 255.503 201.351 250.475 201.351C245.448 201.351 241.372 205.267 241.372 210.098C241.372 214.929 245.448 218.846 250.475 218.846Z" fill="#5370FF"/>
<path d="M283.896 458.148C282.969 458.148 282.049 457.992 281.178 457.686L222.133 437.065C220.496 436.493 219.098 435.422 218.155 434.015C217.212 432.608 216.774 430.943 216.909 429.274C217.044 427.605 217.745 426.025 218.903 424.775C220.062 423.525 221.614 422.674 223.324 422.353L386.396 391.676C387.715 391.428 389.079 391.504 390.359 391.898L435.922 405.927C437.567 406.433 438.996 407.44 439.994 408.794C440.993 410.148 441.506 411.778 441.457 413.437C441.409 415.096 440.8 416.695 439.724 417.993C438.648 419.291 437.162 420.218 435.49 420.634L285.899 457.903C285.245 458.067 284.572 458.148 283.896 458.148Z" fill="#090814"/>
<path d="M403.32 386.018L488.959 395.907L473.346 424.841L397.842 414.31C391.625 418.547 382.985 420.433 374.001 418.828C358.284 416.016 347.505 403.608 349.926 391.106C352.347 378.604 367.05 370.755 382.767 373.567C391.75 375.168 399.105 379.916 403.32 386.018Z" fill="#FFDDCC"/>
<path d="M522.232 153.819C518.942 142.134 512.347 131.553 503.177 123.252C494.008 114.951 482.624 109.254 470.289 106.794C457.954 104.334 445.151 105.207 433.301 109.317C421.451 113.426 411.019 120.611 403.162 130.074C395.305 139.536 390.331 150.906 388.792 162.921C387.253 174.936 389.209 187.126 394.444 198.137C399.679 209.148 407.987 218.549 418.446 225.297C428.905 232.045 441.106 235.875 453.694 236.363L489.133 313.839L539.371 245.071C539.371 245.071 520.54 231.564 507.59 214.182C515.033 206.068 520.267 196.307 522.822 185.773C525.377 175.238 525.174 164.26 522.232 153.819Z" fill="#FFDDCC"/>
<path d="M591.173 289.067C586.675 278.415 578.994 269.282 569.099 262.823C559.205 256.363 547.539 252.866 535.577 252.773C504.717 252.487 465.436 260.241 463.817 301.225C461.136 369.083 463.817 341.77 463.817 341.77C463.817 341.77 442.513 392.744 463.817 417.33C485.121 441.916 503.697 490.378 503.697 490.378H633.154C633.154 490.378 610.805 433.622 614.646 394.901C617.251 368.616 604.826 321.517 591.173 289.07L591.173 289.067Z" fill="#D6D6E3"/>
<path d="M628.208 279.043C624.662 285.187 614.42 284.839 609.366 279.762C604.312 274.684 603.468 266.942 604.261 259.958C605.054 252.974 607.195 246.106 607.048 239.082C606.767 225.678 624.96 247.583 615.615 237.629C606.27 227.675 595.584 218.531 589.198 206.611L588.426 205.851C591.154 197.193 584.538 188.348 577.091 182.818C569.643 177.287 560.714 173.063 555.63 165.448C551.304 158.972 550.43 151.007 548.536 143.526C541.2 114.553 515.84 90.52 485.591 83.8727C455.341 77.2254 421.631 88.2809 401.92 111.31L402.394 110.355C395.988 111.692 390.089 114.7 385.344 119.048C380.6 123.396 377.195 128.916 375.502 135.002C374.578 138.528 374.27 142.319 375.502 145.758C376.735 149.197 379.732 152.2 383.47 152.769C387.479 153.377 391.49 151.114 393.96 148.018C396.43 144.922 397.661 141.102 398.847 137.374C401.183 145.228 405.65 152.344 411.789 157.993C417.929 163.642 425.521 167.621 433.788 169.523C433.499 171.669 433.817 173.85 434.711 175.836C435.604 177.821 437.039 179.538 438.864 180.806C440.689 182.073 442.837 182.842 445.079 183.034C447.322 183.225 449.577 182.831 451.606 181.893L452.555 181.023L466.555 181.631C462.793 186.557 460.113 192.167 458.676 198.119C457.24 204.072 457.079 210.242 458.201 216.256C459.323 222.271 461.706 228.003 465.204 233.105C468.703 238.207 473.245 242.572 478.553 245.936C487.007 251.291 496.991 253.866 506.801 256.272C516.611 258.678 519.508 275.556 532.411 290.215C531.727 306.872 544.591 323.125 561.482 326.933L556.846 341.888C566.24 338.677 576.524 341.601 586.443 342.572C596.361 343.542 608.387 341.23 612.199 332.378C616.252 322.965 608.514 312.985 601.316 305.507C615.97 306.912 630.019 293.087 628.212 279.043H628.208Z" fill="#090814"/>
<path d="M373.415 432.293L456.809 453.461L437.184 480.042L363.92 459.582C357.153 462.953 348.324 463.674 339.658 460.89C324.496 456.019 315.606 442.295 319.801 430.237C323.996 418.179 339.689 412.356 354.854 417.227C363.52 420.011 370.119 425.69 373.417 432.294L373.415 432.293Z" fill="#FFDDCC"/>
<path d="M539.371 341.771C539.371 341.771 535.732 495.503 483.56 490.376C431.387 485.25 414.121 478.796 414.121 478.796C414.121 478.796 403.567 440.076 421.794 439.152C440.02 438.228 463.812 433.918 463.812 433.918V322.421" fill="#D6D6E3"/>
<path d="M387.878 67.5494C384.477 68.9174 380.918 67.4186 379.431 63.9894C377.918 60.5084 379.331 56.9743 382.79 55.5864C386.249 54.1986 389.739 55.6989 391.276 59.2346C392.791 62.7209 391.39 66.1387 387.878 67.5494ZM381.356 48.734L378.649 49.8201C377.972 50.0884 377.216 50.1029 376.529 49.8608C375.842 49.6187 375.275 49.1376 374.939 48.5128L374.805 48.2612C371.892 43.2131 371.563 37.0781 373.819 30.0356C375.913 23.7182 376.783 19.275 375.034 15.2499C373.012 10.5962 368.694 9.13847 363.187 11.2498C361.051 12.1072 360.371 12.0935 358.69 13.6956C358.324 14.0483 357.889 14.3266 357.409 14.514C356.929 14.7014 356.414 14.794 355.896 14.7863C355.396 14.7806 354.901 14.678 354.443 14.4848C353.984 14.2915 353.571 14.0115 353.227 13.6614C352.565 12.9867 352.194 12.0958 352.19 11.1685C352.185 10.2413 352.546 9.34681 353.201 8.66574C356.026 5.8241 359.433 3.576 363.208 2.06331C375.04 -2.68386 380.995 4.32518 383.721 10.597C386.387 16.732 384.888 22.4246 382.478 29.7962C380.458 35.9221 380.579 40.461 382.873 44.9741C383.039 45.3153 383.131 45.6852 383.144 46.0615C383.157 46.4378 383.091 46.8127 382.949 47.1638C382.808 47.5149 382.594 47.8349 382.321 48.1046C382.047 48.3743 381.72 48.5881 381.358 48.7332L381.356 48.734Z" fill="#5370FF"/>
</g>
<defs>
<clipPath id="clip0_2302_729">
<rect width="633" height="490" fill="white" transform="translate(0.154785 0.501465)"/>
</clipPath>
</defs>
</svg>
