<svg width="623" height="431" viewBox="0 0 623 431" fill="none" xmlns="http://www.w3.org/2000/svg">
<g clip-path="url(#clip0_2337_184)">
<path d="M318.023 429.871C336.731 429.871 351.897 414.994 351.897 396.642C351.897 378.29 336.731 363.413 318.023 363.413C299.315 363.413 284.15 378.29 284.15 396.642C284.15 414.994 299.315 429.871 318.023 429.871Z" fill="#5370FF"/>
<path d="M520.385 428.004C539.335 422.421 559.482 416.599 574.511 403.327C587.94 391.467 597.007 373.357 591.443 355.57C585.891 337.82 569.261 325.984 552.09 320.098C542.352 316.759 532.163 314.907 521.979 313.452C510.907 311.87 499.787 310.574 488.672 309.327C443.666 304.277 398.491 301.192 353.146 300.073C330.772 299.52 308.401 299.533 286.024 299.852C266.039 300.136 244.991 300.129 226.452 291.797C212.034 285.317 198.949 273.529 194.932 258.038C190.295 240.156 198.848 221.946 211.118 208.995C217.585 202.168 225.144 196.423 232.941 191.14C241.4 185.408 250.154 180.083 259.098 175.111C276.713 165.325 295.129 156.997 314.154 150.212C323.54 146.865 333.065 143.976 342.673 141.312C350.785 139.062 358.923 136.809 366.764 133.743C381.921 127.817 396.337 117.779 400.191 101.322C403.844 85.725 397.685 68.7932 386.889 57.2064C374.398 43.8014 355.564 37.925 337.507 36.9742C317.236 35.9068 297.432 40.8837 278.378 47.2C258.057 53.9368 238.173 61.683 217.422 67.1398C196.845 72.5456 175.869 76.3705 154.686 78.5797C144.316 79.6629 133.633 80.886 123.201 80.0567C114.459 79.3617 105.761 76.8395 99.3176 70.7528C93.7929 65.5339 90.5018 58.3613 91.6333 50.792C91.8388 49.4172 93.9678 50.0017 93.7635 51.3681C92.3862 60.582 98.7708 69.0724 106.638 73.4216C115.731 78.4481 126.796 78.455 136.92 77.8801C158.87 76.5795 180.672 73.4878 202.1 68.6369C223.155 63.9194 243.458 57.1755 263.737 49.9715C282.998 43.1295 302.689 36.4517 323.266 34.9698C341.121 33.6839 359.902 36.2355 375.456 45.3886C389.126 53.433 399.179 66.8483 402.382 82.2427C405.512 97.2858 401.177 112.427 389.569 122.925C377.55 133.794 361.07 138.44 345.713 142.72C326.234 148.148 307.173 154.494 288.723 162.732C270.021 171.059 252.085 180.951 235.114 192.297C218.733 203.279 202.566 217.097 197.385 236.688C194.971 245.814 195.417 255.493 199.455 264.113C203.046 271.777 208.959 278.224 215.848 283.197C232.285 295.061 253 297.497 272.854 297.739C295.153 298.012 317.452 297.273 339.758 297.633C385.216 298.364 430.582 301.079 475.854 305.776C487.198 306.954 498.528 308.255 509.844 309.682C520.022 310.964 530.234 312.239 540.24 314.518C558.033 318.569 575.346 326.358 586.405 341.157C591.313 347.572 594.354 355.173 595.203 363.15C595.977 371.475 593.899 379.815 590.063 387.22C581.57 403.611 565.664 414.037 548.771 420.886C539.724 424.555 530.339 427.334 520.972 430.094C519.607 430.496 519.024 428.405 520.385 428.004Z" fill="#AABEFF"/>
<path d="M93.0598 68.324C102.82 68.324 110.733 60.562 110.733 50.9871C110.733 41.4121 102.82 33.6501 93.0598 33.6501C83.2992 33.6501 75.3867 41.4121 75.3867 50.9871C75.3867 60.562 83.2992 68.324 93.0598 68.324Z" fill="#AABEFF"/>
<path d="M215.667 101.192C225.427 101.192 233.34 93.4299 233.34 83.855C233.34 74.2801 225.427 66.5181 215.667 66.5181C205.906 66.5181 197.994 74.2801 197.994 83.855C197.994 93.4299 205.906 101.192 215.667 101.192Z" fill="#AABEFF"/>
<path d="M319.496 35.4561C329.256 35.4561 337.169 27.6941 337.169 18.1191C337.169 8.54423 329.256 0.782227 319.496 0.782227C309.735 0.782227 301.823 8.54423 301.823 18.1191C301.823 27.6941 309.735 35.4561 319.496 35.4561Z" fill="#AABEFF"/>
<path d="M384.297 109.138C394.058 109.138 401.97 101.376 401.97 91.801C401.97 82.2261 394.058 74.4641 384.297 74.4641C374.537 74.4641 366.624 82.2261 366.624 91.801C366.624 101.376 374.537 109.138 384.297 109.138Z" fill="#AABEFF"/>
<path d="M296.668 194.378C306.429 194.378 314.341 186.616 314.341 177.041C314.341 167.466 306.429 159.704 296.668 159.704C286.908 159.704 278.995 167.466 278.995 177.041C278.995 186.616 286.908 194.378 296.668 194.378Z" fill="#AABEFF"/>
<path d="M185.475 235.553C195.236 235.553 203.148 227.791 203.148 218.216C203.148 208.641 195.236 200.879 185.475 200.879C175.715 200.879 167.802 208.641 167.802 218.216C167.802 227.791 175.715 235.553 185.475 235.553Z" fill="#AABEFF"/>
<path d="M303.296 299.844C313.056 299.844 320.969 292.082 320.969 282.507C320.969 272.932 313.056 265.17 303.296 265.17C293.535 265.17 285.623 272.932 285.623 282.507C285.623 292.082 293.535 299.844 303.296 299.844Z" fill="#AABEFF"/>
<path d="M429.953 335.963C439.713 335.963 447.626 328.201 447.626 318.626C447.626 309.051 439.713 301.289 429.953 301.289C420.192 301.289 412.28 309.051 412.28 318.626C412.28 328.201 420.192 335.963 429.953 335.963Z" fill="#AABEFF"/>
<path d="M577.964 328.017C587.725 328.017 595.638 320.255 595.638 310.68C595.638 301.105 587.725 293.343 577.964 293.343C568.204 293.343 560.291 301.105 560.291 310.68C560.291 320.255 568.204 328.017 577.964 328.017Z" fill="#AABEFF"/>
<path d="M314.395 49.9059C261.455 50.2728 218.109 92.4752 217.357 144.404C217.35 144.883 217.347 148.255 217.347 152.664C217.347 159.129 219.965 165.329 224.625 169.9C229.285 174.472 235.605 177.04 242.195 177.041C245.462 177.04 248.697 176.408 251.715 175.18C254.732 173.953 257.474 172.154 259.783 169.887C262.091 167.62 263.922 164.928 265.17 161.967C266.418 159.005 267.059 155.831 267.056 152.626C267.054 149.627 267.052 147.551 267.052 147.424C267.05 139.398 269.178 131.51 273.227 124.536C277.275 117.562 283.105 111.742 290.141 107.649C297.178 103.555 305.18 101.329 313.36 101.189C321.54 101.049 329.616 103.001 336.794 106.852C343.972 110.702 350.004 116.32 354.297 123.151C358.591 129.983 360.998 137.793 361.281 145.814C361.564 153.835 359.714 161.789 355.912 168.896C352.111 176.002 346.489 182.016 339.6 186.345L339.609 186.355C339.609 186.355 304.242 208.69 293.459 239.33L293.469 239.332C291.573 245.609 290.612 252.122 290.616 258.669C290.616 261.36 290.778 284.906 291.09 304.018C291.199 310.612 293.946 316.9 298.738 321.524C303.531 326.149 309.985 328.74 316.708 328.739C320.086 328.739 323.431 328.083 326.55 326.81C329.669 325.537 332.5 323.672 334.881 321.322C337.263 318.971 339.147 316.182 340.425 313.114C341.703 310.047 342.35 306.762 342.33 303.448C342.221 285.946 342.163 265.566 342.163 264.087C342.163 245.273 360.664 226.527 375.862 214.303C393.363 200.226 405.956 181.043 411.015 159.403C412.134 154.948 412.751 150.386 412.855 145.798C412.855 133.147 410.303 120.621 405.346 108.941C400.389 97.2614 393.126 86.6594 383.973 77.7459C374.821 68.8324 363.961 61.7836 352.02 57.0055C340.078 52.2274 327.291 49.8146 314.395 49.9059Z" fill="#5370FF"/>
<path d="M621.478 430.782H1.23198C0.999884 430.782 0.777526 430.691 0.613643 430.529C0.449761 430.368 0.357727 430.15 0.357727 429.922C0.357727 429.694 0.449761 429.476 0.613643 429.315C0.777526 429.154 0.999884 429.063 1.23198 429.062H621.478C621.711 429.062 621.934 429.153 622.098 429.314C622.263 429.475 622.355 429.694 622.355 429.922C622.355 430.15 622.263 430.369 622.098 430.53C621.934 430.692 621.711 430.782 621.478 430.782Z" fill="#3F3D56"/>
<path d="M463.131 197.987C475.332 197.987 485.222 188.284 485.222 176.316C485.222 164.347 475.332 154.644 463.131 154.644C450.93 154.644 441.04 164.347 441.04 176.316C441.04 188.284 450.93 197.987 463.131 197.987Z" fill="#2F2E41"/>
<path d="M422.308 421.296H413.281L408.986 387.136H422.311L422.308 421.296Z" fill="#A0616A"/>
<path d="M406.832 418.765H424.243V429.519H395.87C395.87 428.107 396.154 426.708 396.704 425.403C397.255 424.099 398.063 422.913 399.081 421.915C400.099 420.916 401.307 420.124 402.637 419.583C403.967 419.043 405.393 418.765 406.832 418.765Z" fill="#2F2E41"/>
<path d="M492.264 421.296H483.237L478.942 387.136H492.266L492.264 421.296Z" fill="#A0616A"/>
<path d="M476.788 418.765H494.199V429.519H465.826C465.826 428.107 466.109 426.708 466.66 425.403C467.211 424.099 468.019 422.913 469.037 421.915C470.055 420.916 471.263 420.124 472.593 419.583C473.923 419.043 475.349 418.765 476.788 418.765Z" fill="#2F2E41"/>
<path d="M459.774 198.113C469.762 198.113 477.86 190.17 477.86 180.371C477.86 170.572 469.762 162.629 459.774 162.629C449.785 162.629 441.687 170.572 441.687 180.371C441.687 190.17 449.785 198.113 459.774 198.113Z" fill="#A0616A"/>
<path d="M470.554 255.35L478.646 237.11C480.612 232.831 481.175 228.06 480.258 223.453C479.342 218.847 476.99 214.633 473.529 211.394C472.818 210.704 472.062 210.06 471.268 209.465C467.275 206.401 462.354 204.731 457.284 204.719C453.875 204.732 450.51 205.466 447.417 206.872C447.151 206.987 446.894 207.11 446.629 207.233C446.12 207.471 445.62 207.731 445.134 207.999C441.964 209.784 439.266 212.276 437.258 215.272C435.249 218.269 433.987 221.686 433.573 225.249L430.001 254.606C429.103 256.91 397.056 340.128 408.264 403.66C408.383 404.339 408.72 404.962 409.226 405.439C409.732 405.916 410.381 406.222 411.076 406.311L422.439 407.828C423.268 407.94 424.11 407.738 424.795 407.265C425.479 406.792 425.956 406.082 426.128 405.278L445.193 316.13C445.312 315.577 445.616 315.078 446.058 314.714C446.5 314.35 447.053 314.141 447.63 314.122C448.207 314.103 448.773 314.274 449.239 314.608C449.705 314.942 450.043 315.42 450.2 315.964L477.137 409.714C477.329 410.395 477.743 410.996 478.316 411.423C478.89 411.851 479.59 412.083 480.311 412.083C480.525 412.082 480.74 412.062 480.951 412.025L494.832 409.403C495.639 409.255 496.36 408.817 496.855 408.174C497.349 407.531 497.581 406.73 497.505 405.928C495.465 383.614 484.626 271.842 470.554 255.35Z" fill="#2F2E41"/>
<path d="M389.486 195.136C389.361 196.191 389.472 197.26 389.814 198.268C390.155 199.276 390.717 200.198 391.461 200.969C392.205 201.741 393.112 202.343 394.118 202.734C395.125 203.124 396.207 203.293 397.288 203.229L407.397 227.062L415.044 215.941L404.272 195.014C404.042 193.241 403.157 191.611 401.784 190.435C400.411 189.259 398.646 188.618 396.824 188.633C395.001 188.648 393.248 189.318 391.895 190.517C390.543 191.715 389.686 193.359 389.486 195.136Z" fill="#A0616A"/>
<path d="M458.771 279.348C459.846 279.222 460.879 278.866 461.799 278.306C462.719 277.745 463.502 276.994 464.093 276.105C464.685 275.215 465.071 274.21 465.223 273.158C465.375 272.107 465.291 271.036 464.976 270.02L486.246 254.822L473.441 250.118L455.205 265.271C453.5 265.904 452.091 267.128 451.245 268.711C450.399 270.295 450.175 272.128 450.614 273.863C451.054 275.598 452.127 277.115 453.63 278.126C455.133 279.137 456.963 279.571 458.771 279.348Z" fill="#A0616A"/>
<path d="M424.096 242.951C423.28 242.95 422.467 242.871 421.667 242.716C419.732 242.355 417.918 241.532 416.384 240.321C414.849 239.109 413.642 237.546 412.869 235.769L398.705 218.828C398.406 218.469 398.188 218.053 398.066 217.605C397.944 217.157 397.921 216.69 397.999 216.233C398.076 215.776 398.252 215.34 398.515 214.955C398.778 214.571 399.122 214.245 399.524 214.002L409.6 207.883C409.973 207.657 410.387 207.505 410.819 207.437C411.251 207.369 411.692 207.385 412.118 207.485C412.543 207.585 412.944 207.767 413.298 208.02C413.651 208.273 413.95 208.592 414.177 208.959L424.16 225.093L443.277 211.233C444.799 210.45 446.558 210.23 448.231 210.614C449.905 210.998 451.382 211.96 452.392 213.324C453.403 214.687 453.879 216.362 453.735 218.042C453.59 219.722 452.835 221.295 451.606 222.474L432.525 239.548C430.283 241.729 427.253 242.952 424.096 242.951Z" fill="#2F2E41"/>
<path d="M475.753 268.431C475.727 268.431 475.701 268.431 475.675 268.43C475.21 268.419 474.753 268.312 474.333 268.117C473.913 267.921 473.54 267.642 473.237 267.296L464.278 257.043C463.973 256.693 463.747 256.285 463.615 255.843C463.482 255.402 463.447 254.939 463.511 254.483C463.575 254.027 463.737 253.59 463.986 253.201C464.235 252.811 464.566 252.477 464.956 252.222L481.732 241.251L466.534 223.327C465.65 221.882 465.326 220.172 465.62 218.511C465.915 216.85 466.809 215.349 468.139 214.281C469.469 213.213 471.147 212.65 472.865 212.696C474.583 212.741 476.227 213.391 477.497 214.527L495.968 232.234C497.421 233.537 498.531 235.167 499.202 236.983C499.872 238.799 500.083 240.747 499.817 242.661C499.551 244.575 498.815 246.397 497.673 247.97C496.532 249.544 495.017 250.822 493.261 251.695L478.164 267.41C477.854 267.732 477.481 267.989 477.066 268.164C476.651 268.34 476.205 268.43 475.753 268.431Z" fill="#2F2E41"/>
<path d="M455.175 230.651C455.031 230.651 454.888 230.642 454.745 230.624C454.121 230.55 453.532 230.302 453.048 229.909C452.563 229.516 452.204 228.995 452.013 228.408L445.28 208.16C445.112 207.648 445.138 207.094 445.353 206.599C445.569 206.104 445.96 205.703 446.454 205.469L446.673 205.368C446.871 205.276 447.067 205.184 447.267 205.097C450.407 203.669 453.824 202.924 457.284 202.913C461.776 202.921 466.169 204.216 469.921 206.638C470.425 206.967 470.776 207.476 470.9 208.056C471.024 208.636 470.911 209.241 470.585 209.74L457.956 229.149C457.66 229.61 457.25 229.989 456.763 230.252C456.277 230.515 455.73 230.652 455.175 230.651Z" fill="#D6DDFF"/>
<path d="M480.548 166.641C484.54 166.641 487.777 163.466 487.777 159.55C487.777 155.633 484.54 152.458 480.548 152.458C476.555 152.458 473.319 155.633 473.319 159.55C473.319 163.466 476.555 166.641 480.548 166.641Z" fill="#2F2E41"/>
<path d="M455.767 151.755C450.689 151.755 445.819 153.734 442.229 157.256C438.638 160.778 436.621 165.555 436.621 170.536V178.483H446.584L451.349 170.537L452.778 178.483H483.013L474.913 170.536C474.913 165.555 472.896 160.778 469.305 157.256C465.715 153.734 460.845 151.755 455.767 151.755Z" fill="#2F2E41"/>
<path d="M484.263 154.692C485.063 152.24 486.718 150.143 488.937 148.769C491.157 147.396 493.799 146.834 496.399 147.183C501.006 147.938 504.648 151.571 506.819 155.628C508.989 159.685 509.991 164.226 511.45 168.579C512.909 172.931 514.978 177.307 518.661 180.125C522.345 182.943 527.997 183.707 531.614 180.808C531.201 183.829 529.83 186.646 527.695 188.86C525.561 191.075 522.77 192.575 519.719 193.148C516.668 193.722 513.51 193.34 510.692 192.056C507.874 190.773 505.539 188.653 504.017 185.996C502.108 182.665 501.615 178.76 501.049 174.979C500.483 171.198 499.748 167.286 497.469 164.186C495.19 161.087 490.924 159.063 487.304 160.474L484.263 154.692Z" fill="#2F2E41"/>
<path d="M249.211 165.511C242.621 165.51 236.301 162.941 231.641 158.37C226.981 153.798 224.363 147.598 224.363 141.134C224.363 136.724 224.366 133.353 224.373 132.874C224.582 117.771 228.459 102.936 235.683 89.5974C223.815 105.535 217.289 124.697 217.009 144.432C217.002 144.911 216.999 148.282 216.999 152.691C217 159.156 219.618 165.356 224.277 169.928C228.937 174.499 235.257 177.068 241.848 177.069C247.263 177.067 252.53 175.331 256.848 172.125C261.165 168.918 264.299 164.417 265.771 159.305C261.221 163.308 255.323 165.518 249.211 165.511Z" fill="#3F3D56"/>
<path d="M316.079 101.271C323.698 101.628 331.114 103.793 337.692 107.581C344.27 111.369 349.812 116.667 353.843 123.019C357.873 129.371 360.272 136.588 360.834 144.05C361.395 151.512 360.102 158.996 357.065 165.86C361.458 160.8 364.686 154.87 366.53 148.474C368.375 142.079 368.792 135.368 367.753 128.801C366.714 122.233 364.244 115.962 360.51 110.416C356.777 104.869 351.868 100.178 346.119 96.6611C340.37 93.1444 333.915 90.8851 327.195 90.0373C320.476 89.1895 313.648 89.7731 307.179 91.7483C300.71 93.7235 294.751 97.0439 289.708 101.483C284.666 105.922 280.658 111.376 277.959 117.472C282.624 112.088 288.488 107.828 295.097 105.019C301.706 102.21 308.885 100.928 316.079 101.271Z" fill="#3F3D56"/>
<path d="M323.724 317.209C317.001 317.21 310.547 314.619 305.754 309.994C300.962 305.369 298.214 299.081 298.105 292.487C297.794 273.376 297.632 249.83 297.632 247.139C297.628 240.592 298.589 234.079 300.485 227.802L300.476 227.8C301.595 224.649 302.947 221.583 304.521 218.625C299.69 224.942 295.844 231.929 293.112 239.358L293.121 239.36C291.225 245.637 290.264 252.15 290.268 258.697C290.268 261.388 290.43 284.934 290.742 304.045C290.851 310.639 293.598 316.927 298.391 321.552C303.183 326.177 309.637 328.768 316.36 328.767C321.903 328.766 327.297 327.002 331.731 323.739C336.166 320.477 339.403 315.892 340.957 310.672C336.246 314.886 330.099 317.217 323.724 317.209Z" fill="#3F3D56"/>
<path d="M93.5371 421.625L102.564 421.624L106.86 387.465L93.5349 387.466L93.5371 421.625Z" fill="#FFB8B8"/>
<path d="M119.976 429.847L91.6026 429.849L91.6021 419.095L109.013 419.094C111.92 419.094 114.709 420.227 116.765 422.243C118.821 424.26 119.976 426.995 119.976 429.847Z" fill="#2F2E41"/>
<path d="M61.1365 421.625L70.1637 421.624L74.459 387.465L61.1343 387.466L61.1365 421.625Z" fill="#FFB8B8"/>
<path d="M87.5751 429.847L59.202 429.849L59.2015 419.095L76.6123 419.094C79.5197 419.094 82.3081 420.227 84.364 422.243C86.4199 424.26 87.575 426.995 87.5751 429.847Z" fill="#2F2E41"/>
<path d="M69.0256 411.119L60.2074 410.664C59.7527 410.641 59.3073 410.529 58.8969 410.335C58.4866 410.142 58.1194 409.87 57.8168 409.537C57.5142 409.203 57.2821 408.814 57.1339 408.391C56.9858 407.969 56.9245 407.522 56.9538 407.076L67.4933 292.605L116.029 305.453L120.705 304.201L106.082 405.539C105.957 406.301 105.571 406.999 104.988 407.517C104.404 408.035 103.658 408.343 102.872 408.388L93.3665 408.823C92.8912 408.849 92.4156 408.778 91.9697 408.614C91.5239 408.45 91.1174 408.198 90.7762 407.872C90.4349 407.547 90.1661 407.155 89.9869 406.723C89.8078 406.29 89.722 405.826 89.7351 405.359L91.4575 344.538C91.4655 344.256 91.3659 343.982 91.1783 343.77C90.9906 343.557 90.7285 343.421 90.4437 343.388C90.1588 343.355 89.8718 343.429 89.6392 343.593C89.4066 343.758 89.2453 344.002 89.1871 344.278L72.5767 408.433C72.4199 409.194 71.9988 409.879 71.3853 410.369C70.7717 410.86 70.0037 411.127 69.2121 411.124C69.1503 411.124 69.0881 411.123 69.0256 411.119Z" fill="#2F2E41"/>
<path d="M95.1579 198.943C105.147 198.943 113.244 191 113.244 181.201C113.244 171.402 105.147 163.459 95.1579 163.459C85.1692 163.459 77.0717 171.402 77.0717 181.201C77.0717 191 85.1692 198.943 95.1579 198.943Z" fill="#FFB8B8"/>
<path d="M65.0457 233.326L67.0343 275.417L67.7532 290.73C67.7819 291.397 68.0126 292.04 68.4159 292.577C68.8191 293.115 69.3766 293.522 70.0171 293.747L116.656 310.32C117.033 310.458 117.432 310.526 117.834 310.523C118.294 310.525 118.749 310.436 119.172 310.262C119.596 310.088 119.98 309.832 120.3 309.509C120.621 309.186 120.872 308.803 121.038 308.383C121.204 307.963 121.283 307.514 121.268 307.064L119.356 231.383C119.231 225.174 116.901 219.202 112.768 214.498C108.635 209.793 102.959 206.65 96.7173 205.611C96.2662 205.544 95.8072 205.476 95.3483 205.416C91.478 204.945 87.5494 205.311 83.8389 206.489C80.1285 207.668 76.7263 209.629 73.8718 212.236C70.916 214.903 68.5934 218.174 67.0683 221.819C65.5432 225.463 64.8527 229.391 65.0457 233.326Z" fill="#CCCCCC"/>
<path d="M138.936 301.922C137.833 301.586 136.825 301.002 135.993 300.216C135.161 299.43 134.527 298.464 134.143 297.396C133.759 296.327 133.635 295.186 133.781 294.062C133.926 292.938 134.338 291.863 134.982 290.922L119.166 270.291L132.815 269.463L145.741 289.181C147.125 290.231 148.088 291.725 148.461 293.401C148.834 295.078 148.594 296.83 147.782 298.35C146.97 299.87 145.639 301.061 144.021 301.714C142.403 302.367 140.603 302.44 138.936 301.922Z" fill="#FFB8B8"/>
<path d="M127.816 287.189C127.397 287.022 127.015 286.775 126.694 286.463C126.373 286.151 126.118 285.779 125.944 285.37L102.116 229.679C101.649 228.588 101.405 227.418 101.399 226.235C101.392 225.053 101.624 223.88 102.079 222.785C102.535 221.69 103.207 220.693 104.055 219.853C104.903 219.012 105.913 218.344 107.024 217.886C108.136 217.429 109.329 217.19 110.535 217.185C111.741 217.18 112.936 217.407 114.052 217.855C115.168 218.303 116.183 218.963 117.039 219.796C117.895 220.629 118.576 221.619 119.042 222.71L142.869 278.402C143.222 279.227 143.226 280.156 142.88 280.985C142.535 281.813 141.869 282.474 141.028 282.821L130.45 287.176C130.033 287.349 129.586 287.439 129.134 287.442C128.682 287.444 128.234 287.358 127.816 287.189Z" fill="#CCCCCC"/>
<path d="M89.3431 285.224L112.229 242.237C112.67 241.41 113.428 240.789 114.336 240.51C115.243 240.23 116.227 240.315 117.071 240.746L150.29 257.766C151.133 258.199 151.766 258.942 152.051 259.832C152.336 260.723 152.249 261.687 151.809 262.515L128.923 305.503C128.482 306.329 127.724 306.951 126.817 307.23C125.909 307.509 124.925 307.424 124.082 306.993L90.8625 289.974C90.0198 289.541 89.3865 288.798 89.1017 287.907C88.8168 287.017 88.9036 286.052 89.3431 285.224Z" fill="#3F3D56"/>
<path d="M104.691 265.585C104.284 264.524 103.631 263.572 102.782 262.803C101.933 262.035 100.913 261.472 99.8029 261.159C98.6929 260.846 97.5236 260.791 96.3885 261C95.2533 261.21 94.1837 261.676 93.2649 262.363L71.3367 248.093L71.2994 261.507L92.1285 273.001C93.2783 274.294 94.8555 275.149 96.5836 275.416C98.3116 275.682 100.08 275.343 101.579 274.458C103.078 273.574 104.211 272.199 104.78 270.577C105.349 268.954 105.318 267.187 104.691 265.585Z" fill="#FFB8B8"/>
<path d="M76.9666 268.601L59.0456 254.676C57.1069 254.037 55.3551 252.946 53.9406 251.497C52.5261 250.049 51.4912 248.284 50.9247 246.357C50.3581 244.429 50.2769 242.395 50.6879 240.43C51.099 238.465 51.99 236.627 53.2846 235.074L69.5564 214.154C70.6872 212.799 72.2775 211.888 74.0365 211.588C75.7956 211.288 77.606 211.619 79.1368 212.52C80.6675 213.422 81.8164 214.834 82.3734 216.498C82.9304 218.162 82.8583 219.967 82.1703 221.583L69.2956 242.243L88.2161 251.047C88.656 251.251 89.0467 251.545 89.3623 251.909C89.6779 252.273 89.9112 252.698 90.0468 253.157C90.1824 253.616 90.2172 254.098 90.1489 254.571C90.0806 255.044 89.9108 255.497 89.6506 255.901L82.0131 267.758C81.7549 268.158 81.4139 268.501 81.0122 268.763C80.6105 269.026 80.1571 269.203 79.6812 269.283C79.6623 269.286 79.6433 269.289 79.6243 269.292C79.1567 269.361 78.6796 269.335 78.2225 269.217C77.7654 269.098 77.3379 268.888 76.9666 268.601Z" fill="#CCCCCC"/>
<path d="M81.4915 193.081C81.4139 192.859 81.3893 192.621 81.4196 192.388C81.4498 192.155 81.5342 191.931 81.6661 191.734C81.798 191.538 81.9741 191.374 82.1808 191.254C82.3875 191.135 82.6193 191.063 82.8585 191.045C83.3483 191.071 83.8277 191.194 84.2677 191.407C84.7076 191.62 85.099 191.918 85.4182 192.284C86.0728 193.024 86.8348 193.666 87.6798 194.189C88.5547 194.621 89.7413 194.56 90.24 193.735C90.7084 192.96 90.3875 191.923 90.1039 191.024C89.3824 188.735 88.9787 186.361 88.9037 183.966C88.822 181.293 89.2065 178.503 90.715 176.419C92.6619 173.728 96.1431 172.706 99.4377 172.781C102.732 172.855 105.973 173.852 109.237 174.483C110.363 174.701 111.688 174.812 112.441 173.955C113.242 173.045 112.948 171.571 112.607 170.341C111.723 167.15 110.785 163.851 108.73 161.273C106.508 158.596 103.335 156.843 99.8487 156.368C96.5018 155.962 93.1042 156.34 89.9354 157.472C84.7725 159.069 80.2296 162.173 76.9141 166.371C73.4964 170.835 72.0195 176.445 72.8065 181.974C73.5754 186.79 76.1768 191.141 80.0862 194.15L81.4915 193.081Z" fill="#2F2E41"/>
<path d="M310.56 421.766C305.748 419.71 301.489 416.585 298.119 412.638C294.749 408.691 292.361 404.029 291.142 399.022C289.923 394.014 289.907 388.796 291.095 383.781C292.284 378.767 294.644 374.091 297.99 370.124C294.111 372.903 290.878 376.459 288.507 380.557C286.136 384.655 284.68 389.2 284.237 393.892C283.793 398.584 284.372 403.315 285.935 407.77C287.498 412.226 290.008 416.304 293.301 419.735C296.593 423.166 300.592 425.871 305.031 427.67C309.471 429.469 314.25 430.321 319.05 430.17C323.851 430.018 328.564 428.867 332.877 426.793C337.19 424.718 341.003 421.767 344.064 418.136C339.29 421.559 333.684 423.696 327.806 424.333C321.927 424.97 315.981 424.085 310.56 421.766Z" fill="#3F3D56"/>
</g>
<defs>
<clipPath id="clip0_2337_184">
<rect width="622" height="430" fill="white" transform="translate(0.355164 0.782227)"/>
</clipPath>
</defs>
</svg>
