<svg width="721" height="639" viewBox="0 0 721 639" fill="none" xmlns="http://www.w3.org/2000/svg">
<g clip-path="url(#clip0_2302_525)">
<path d="M632.374 120.49C634.542 118.117 636.541 115.598 638.357 112.953L600.355 104.2L641.892 107.248C646.46 98.9671 649.264 89.8551 650.134 80.4696C651.003 71.0842 649.92 61.6226 646.949 52.6639L589.257 77.4729L643.208 43.6366C638.949 35.1187 632.955 27.556 625.599 21.4195C618.243 15.2831 609.683 10.7044 600.453 7.96874C591.222 5.23307 581.519 4.39901 571.947 5.51852C562.375 6.63803 553.139 9.68711 544.815 14.4758C536.492 19.2646 529.258 25.6904 523.566 33.3529C517.873 41.0154 513.844 49.7505 511.728 59.014C509.612 68.2776 509.455 77.8711 511.267 87.197C513.079 96.5228 516.821 105.381 522.26 113.22C518.881 116.914 515.915 120.956 513.415 125.276L561.557 154.095L509.569 133.001C505.095 143.629 503.381 155.187 504.584 166.631C505.786 178.075 509.866 189.043 516.455 198.543C508.375 207.376 502.744 218.111 500.104 229.713C497.465 241.315 497.906 253.391 501.385 264.776C504.864 276.161 511.264 286.47 519.967 294.709C528.67 302.947 539.382 308.836 551.069 311.808C549.968 314.32 549.315 317 549.139 319.73C548.823 323.767 549.606 327.815 551.407 331.455C549.166 334.844 547.845 338.742 547.57 342.778C547.296 346.813 548.077 350.85 549.839 354.503C547.598 357.892 546.277 361.79 546.002 365.826C545.728 369.861 546.509 373.898 548.27 377.551C546.03 380.94 544.709 384.838 544.434 388.873C544.16 392.909 544.941 396.946 546.702 400.599C544.425 403.97 543.101 407.878 542.866 411.921C542.157 422.336 548.13 431.211 556.206 431.744C564.283 432.277 571.404 424.267 572.113 413.852C572.428 409.815 571.645 405.767 569.845 402.127C572.086 398.738 573.407 394.84 573.681 390.804C573.956 386.769 573.175 382.732 571.413 379.079C573.654 375.69 574.975 371.792 575.249 367.756C575.524 363.721 574.743 359.684 572.981 356.031C575.222 352.642 576.543 348.744 576.818 344.709C577.092 340.673 576.311 336.636 574.549 332.983C576.827 329.612 578.151 325.704 578.386 321.661C578.585 318.892 578.29 316.111 577.514 313.443C589.436 311.939 600.767 307.446 610.422 300.394C620.076 293.342 627.731 283.966 632.654 273.165C637.577 262.364 639.602 250.499 638.537 238.706C637.471 226.913 633.35 215.587 626.568 205.812C637.107 194.291 643.408 179.615 644.461 164.141C645.514 148.667 641.257 133.294 632.374 120.49Z" fill="#F2F2F2"/>
<path d="M709.066 425.441C709.066 435.638 636.073 470.575 549.116 470.575C462.159 470.575 394.165 435.638 394.165 425.441C394.165 415.244 462.159 433.647 549.116 433.647C636.073 433.647 709.066 415.244 709.066 425.441Z" fill="#3F3D56"/>
<path opacity="0.1" d="M709.066 425.441C709.066 435.638 636.073 470.575 549.116 470.575C462.159 470.575 394.165 435.638 394.165 425.441C394.165 415.244 462.159 433.647 549.116 433.647C636.073 433.647 709.066 415.244 709.066 425.441Z" fill="black"/>
<path d="M551.615 443.905C638.573 443.905 709.066 435.639 709.066 425.441C709.066 415.244 638.573 406.978 551.615 406.978C464.658 406.978 394.165 415.244 394.165 425.441C394.165 435.639 464.658 443.905 551.615 443.905Z" fill="#3F3D56"/>
<path opacity="0.1" d="M555.339 442.86C584.831 442.86 608.739 436.131 608.739 427.831C608.739 419.531 584.831 412.802 555.339 412.802C525.847 412.802 501.94 419.531 501.94 427.831C501.94 436.131 525.847 442.86 555.339 442.86Z" fill="black"/>
<path d="M567.055 328.027C569.099 324.513 570.155 320.527 570.114 316.477C570.114 306.039 563.552 297.578 555.458 297.578C547.363 297.578 540.801 306.039 540.801 316.477C540.761 320.527 541.817 324.513 543.86 328.027C541.855 331.556 540.801 335.532 540.801 339.577C540.801 343.621 541.855 347.598 543.86 351.127C541.855 354.655 540.801 358.632 540.801 362.676C540.801 366.721 541.855 370.697 543.86 374.226C541.855 377.755 540.801 381.732 540.801 385.776C540.801 389.82 541.855 393.797 543.86 397.326C541.817 400.839 540.761 404.826 540.801 408.875C540.801 419.313 547.363 427.775 555.458 427.775C563.552 427.775 570.114 419.313 570.114 408.875C570.155 404.826 569.099 400.839 567.055 397.326C569.061 393.797 570.114 389.82 570.114 385.776C570.114 381.732 569.061 377.755 567.055 374.226C569.061 370.697 570.114 366.721 570.114 362.676C570.114 358.632 569.061 354.655 567.055 351.127C569.061 347.598 570.114 343.621 570.114 339.577C570.114 335.532 569.061 331.556 567.055 328.027Z" fill="#3F3D56"/>
<path d="M555.458 312.277C563.552 312.277 570.114 303.816 570.114 293.378C570.114 282.94 563.552 274.478 555.458 274.478C547.363 274.478 540.802 282.94 540.802 293.378C540.802 303.816 547.363 312.277 555.458 312.277Z" fill="#3F3D56"/>
<path d="M555.458 289.178C563.552 289.178 570.114 280.716 570.114 270.279C570.114 259.841 563.552 251.379 555.458 251.379C547.363 251.379 540.802 259.841 540.802 270.279C540.802 280.716 547.363 289.178 555.458 289.178Z" fill="#3F3D56"/>
<path d="M610.324 112.201C612.326 109.689 614.15 107.045 615.782 104.286L577.271 98.0559L618.922 98.361C622.917 89.7977 625.097 80.5214 625.328 71.0997C625.558 61.6779 623.835 52.3089 620.262 43.5659L564.383 72.1198L615.917 34.8053C611.089 26.5871 604.595 19.4362 596.839 13.7981C589.083 8.15996 580.231 4.15544 570.836 2.03396C561.44 -0.0875069 551.702 -0.28048 542.227 1.46707C532.753 3.21462 523.745 6.86525 515.765 12.1915C507.785 17.5178 501.004 24.4057 495.844 32.426C490.685 40.4464 487.257 49.4273 485.775 58.8095C484.292 68.1917 484.787 77.774 487.228 86.9596C489.669 96.1452 494.004 104.737 499.964 112.201C496.842 116.109 494.158 120.337 491.957 124.812L541.947 150.395L488.644 132.773C484.901 143.671 483.976 155.317 485.953 166.656C487.929 177.995 492.745 188.67 499.964 197.714C491.818 207.915 486.752 220.167 485.342 233.071C483.933 245.974 486.238 259.008 491.994 270.681C497.751 282.355 506.725 292.198 517.893 299.084C529.06 305.97 541.969 309.622 555.144 309.622C568.319 309.622 581.228 305.97 592.395 299.084C603.562 292.198 612.537 282.355 618.293 270.681C624.049 259.008 626.354 245.974 624.945 233.071C623.536 220.167 618.469 207.915 610.324 197.714C620.057 185.524 625.348 170.466 625.348 154.957C625.348 139.449 620.057 124.391 610.324 112.201Z" fill="#5370FF"/>
<path opacity="0.1" d="M484.939 154.957C484.915 170.47 490.209 185.536 499.963 197.714C491.818 207.915 486.751 220.167 485.342 233.071C483.933 245.974 486.238 259.008 491.994 270.682C497.75 282.355 506.725 292.198 517.892 299.084C529.06 305.97 541.969 309.622 555.144 309.622C568.319 309.622 581.228 305.97 592.395 299.084C603.562 292.198 612.537 282.355 618.293 270.682C624.049 259.008 626.354 245.974 624.945 233.071C623.536 220.167 618.469 207.915 610.324 197.714C619.733 185.948 484.939 147.196 484.939 154.957Z" fill="black"/>
<path d="M805.454 222.963L821.267 209.073C789.876 203.321 758.372 230.523 750.151 270.125C749.877 270.178 749.606 270.244 749.339 270.324L731.509 212.718C730.196 219.569 729.613 226.537 729.769 233.508L715.863 206.909C710.244 236.663 723.624 264.311 746.087 270.937C744.211 270.94 742.338 270.807 740.482 270.54C740.396 270.528 740.337 270.52 740.337 270.52C740.194 271.988 740.236 273.468 740.465 274.926C740.562 275.742 740.917 276.509 741.477 277.117C742.164 277.724 744.097 278.56 746.632 279.424C746.827 279.491 747.025 279.557 747.227 279.624C748.841 280.157 750.664 280.695 752.545 281.19C754.896 281.809 757.337 282.36 759.575 282.752C759.818 282.795 760.041 282.821 760.252 282.838C760.32 282.844 760.379 282.843 760.444 282.846C760.58 282.852 760.713 282.856 760.835 282.851C760.902 282.848 760.963 282.841 761.026 282.835C761.129 282.826 761.231 282.812 761.332 282.793C761.388 282.781 761.442 282.768 761.495 282.754C761.581 282.73 761.665 282.701 761.747 282.666C761.79 282.648 761.834 282.63 761.874 282.609C761.949 282.568 762.021 282.522 762.089 282.469C762.116 282.448 762.147 282.429 762.172 282.406C762.25 282.336 762.319 282.258 762.379 282.173C762.385 282.164 762.392 282.158 762.398 282.149C762.465 282.048 762.519 281.94 762.56 281.826C762.563 281.819 762.564 281.81 762.566 281.802C762.604 281.692 762.632 281.579 762.65 281.465C762.651 281.457 762.654 281.45 762.656 281.443L762.652 281.447C763.061 278.791 759.284 273.171 759.236 271.581C759.189 270.059 755.4 269.65 752.305 269.856L810.489 223.59C808.824 223.286 807.143 223.077 805.454 222.963Z" fill="#F2F2F2"/>
<path d="M851.155 278.421C851.155 285.336 801.663 309.024 742.701 309.024C683.74 309.024 637.637 285.336 637.637 278.421C637.637 271.507 683.74 283.985 742.701 283.985C801.663 283.985 851.155 271.507 851.155 278.421Z" fill="#3F3D56"/>
<path opacity="0.1" d="M851.155 278.421C851.155 285.336 801.663 309.024 742.701 309.024C683.74 309.024 637.637 285.336 637.637 278.421C637.637 271.507 683.74 283.985 742.701 283.985C801.663 283.985 851.155 271.507 851.155 278.421Z" fill="black"/>
<path d="M744.396 290.941C803.357 290.941 851.155 285.335 851.155 278.421C851.155 271.507 803.357 265.902 744.396 265.902C685.434 265.902 637.637 271.507 637.637 278.421C637.637 285.335 685.434 290.941 744.396 290.941Z" fill="#3F3D56"/>
<path d="M696.771 216.095C696.771 247.999 717.09 273.816 742.2 273.816L696.771 216.095Z" fill="#3F3D56"/>
<path d="M713.231 218.987C713.231 249.293 726.188 273.816 742.2 273.816L713.231 218.987Z" fill="#5370FF"/>
<path d="M174.543 190.78L182.714 203.53C179.978 207.136 178.036 211.053 179.282 213.644C182.351 220.031 189.404 228.286 193.165 232.689C196.926 237.093 197.451 248.879 222.969 247.469C248.487 246.06 258.81 234.683 258.81 234.683C258.81 234.683 261.072 255.321 271.92 262.707C271.001 263.958 269.767 264.952 268.34 265.591C256.876 270.862 244.365 312.97 235.694 336.101C226.233 361.335 240.61 356.939 240.61 356.939C245.426 357.017 249.852 357.268 253.912 357.648C258.636 369.969 266.128 396.314 257.342 423.448C251.196 442.425 252.489 462.426 255.236 477.49L249.499 483.534C243.104 485.544 241.206 489.468 241.206 489.468L226.485 509.661L228.924 511.399L237.748 499.385C237.748 499.385 239.673 501.079 242.317 506.409C244.961 511.738 237.442 532.542 237.309 534.062C237.176 535.582 244.007 546.372 253.56 549.735C254.212 549.978 254.91 550.082 255.606 550.04L254.732 560.044L259.921 559.974L261.515 541.731C261.515 541.731 265.518 567.085 266.326 569.706C267.133 572.327 275.453 572.012 284.154 573.26C292.856 574.509 301.502 564.521 292.641 559.175C283.779 553.829 282.669 536.888 282.669 536.888C286.863 524.481 277.388 508.362 277.388 508.362L276.305 497.039C276.098 497.497 275.79 497.905 275.402 498.231C275.015 498.557 274.559 498.794 274.067 498.925L275.362 484.108C285.251 472.904 298.176 457.948 304.869 448.92C316.619 433.07 315.989 428.422 315.989 428.422L328.035 375.802C332.035 376.101 336.056 376.027 340.042 375.582C348.195 374.371 345.153 347.99 340.438 326.72C341.675 321.682 343.632 314.746 346.711 305.212C348.19 300.621 349.164 295.888 349.618 291.092C351.48 271.678 344.672 255.445 341.713 249.451L342.737 246.906C342.737 246.906 352.152 236.778 344.783 219.64C345.205 217.828 345.497 215.989 345.656 214.137C346.317 205.948 344.478 197.752 340.375 190.601C340.326 190.518 340.277 190.433 340.225 190.359L340.172 190.276L340.157 190.275C340.09 190.179 340.016 190.088 339.937 190.001C336.944 186.999 321.679 181.315 318.571 180.178C318.4 180.073 318.209 180.003 318.01 179.973C316.865 179.876 318.068 174.928 319.362 170.553C320.97 169.322 322.396 167.875 323.596 166.254C330 163.682 335.646 159.566 340.015 154.285C344.384 149.003 347.336 142.725 348.601 136.028C349.866 129.33 349.402 122.426 347.253 115.951C345.104 109.475 341.339 103.635 336.302 98.9661C338.078 96.5223 339.311 93.737 339.921 90.7918C340.53 87.8467 340.502 84.808 339.838 81.8743C339.175 78.9406 337.89 76.1778 336.069 73.7663C334.247 71.3548 331.93 69.3488 329.268 67.8794C333.438 71.284 336.165 76.1021 336.912 81.3864C337.659 86.6708 336.372 92.0392 333.304 96.4363C332.841 96.0819 332.371 95.7368 331.893 95.4007C333.041 92.3178 333.452 89.0156 333.094 85.7508C332.737 82.4859 331.62 79.3462 329.83 76.5756C328.041 73.805 325.627 71.4781 322.776 69.7757C319.925 68.0732 316.715 67.0411 313.393 66.7594C310.072 66.4777 306.729 66.9541 303.625 68.1515C300.521 69.349 297.739 71.2352 295.495 73.6637C293.251 76.0923 291.605 78.9977 290.686 82.1543C289.767 85.3109 289.6 88.6337 290.196 91.8646C283.812 94.8649 278.318 99.43 274.239 105.123C270.16 110.815 267.634 117.444 266.903 124.374C266.172 131.304 267.26 138.303 270.063 144.7C272.866 151.098 277.29 156.678 282.911 160.908C278.779 162.805 274.249 163.708 269.694 163.543C265.139 163.378 260.688 162.15 256.709 159.959C260.875 163.353 265.926 165.525 271.285 166.224C276.644 166.923 282.095 166.122 287.014 163.912C288.854 167.232 291.553 170.012 294.837 171.973C294.489 172.945 294.022 173.871 293.446 174.732L292.127 173.694L286.407 179.846L271.648 182.678C271.648 182.678 262.21 183.92 251.462 194.24C240.713 204.559 222.646 209.664 222.646 209.664L208.462 205.908C208.462 205.908 192.15 196.867 192.327 194.84C192.355 194.518 191.963 194.616 191.301 195.029L183.322 179.272C183.322 179.272 168.373 142.779 158.786 151.665C149.199 160.552 174.543 190.78 174.543 190.78ZM279.858 432.666L280.226 428.452C285.063 421.723 287.777 405.126 289.291 389.744L287.091 426.992C284.349 428.434 281.898 430.357 279.858 432.666ZM260.118 511.464L260.04 517.101C258.477 519.858 257.303 522.812 256.55 525.882C256.099 523.189 257.985 517.137 260.118 511.464Z" fill="#F2F2F2"/>
<path d="M522.429 563.434C522.429 580.346 401.369 638.29 257.147 638.29C112.925 638.29 0.154785 580.346 0.154785 563.434C0.154785 546.521 112.925 577.044 257.147 577.044C401.369 577.044 522.429 546.521 522.429 563.434Z" fill="#3F3D56"/>
<path opacity="0.1" d="M522.429 563.434C522.429 580.346 401.369 638.29 257.147 638.29C112.925 638.29 0.154785 580.346 0.154785 563.434C0.154785 546.521 112.925 577.044 257.147 577.044C401.369 577.044 522.429 546.521 522.429 563.434Z" fill="black"/>
<path d="M261.292 594.056C405.514 594.056 522.429 580.346 522.429 563.433C522.429 546.521 405.514 532.811 261.292 532.811C117.07 532.811 0.154785 546.521 0.154785 563.433C0.154785 580.346 117.07 594.056 261.292 594.056Z" fill="#3F3D56"/>
<path opacity="0.1" d="M262.914 576.45C310.662 576.45 349.37 568.226 349.37 558.081C349.37 547.936 310.662 539.712 262.914 539.712C215.165 539.712 176.458 547.936 176.458 558.081C176.458 568.226 215.165 576.45 262.914 576.45Z" fill="black"/>
<path d="M254.112 159.024C257.728 156.317 260.642 152.805 262.615 148.776C264.589 144.746 265.566 140.314 265.466 135.841C265.367 131.368 264.194 126.982 262.043 123.042C259.893 119.102 256.826 115.719 253.093 113.17C256.736 114.792 259.996 117.144 262.665 120.076C265.333 123.009 267.353 126.457 268.593 130.2C269.834 133.944 270.269 137.902 269.87 141.82C269.472 145.739 268.248 149.532 266.278 152.959C264.309 156.386 261.635 159.371 258.429 161.724C255.223 164.076 251.554 165.744 247.656 166.622C243.759 167.5 239.719 167.568 235.793 166.822C231.868 166.077 228.143 164.533 224.857 162.29C229.579 164.393 234.791 165.199 239.941 164.624C245.091 164.049 249.987 162.115 254.112 159.024Z" fill="#2F2E41"/>
<path d="M306.004 185.444H310.652C314.086 190.266 316.418 195.764 317.488 201.559C318.558 207.354 318.339 213.309 316.848 219.014C311.684 238.342 315.815 241.902 315.815 241.902C315.815 241.902 334.404 267.842 327.175 299.377C319.946 330.912 322.011 334.473 322.011 334.473L309.102 309.041L301.874 241.902L306.004 185.444Z" fill="#5370FF"/>
<path opacity="0.1" d="M306.004 185.47H310.652C314.086 190.292 316.418 195.79 317.488 201.585C318.558 207.38 318.339 213.335 316.848 219.039C311.684 238.367 315.815 241.928 315.815 241.928C315.815 241.928 334.404 267.868 327.175 299.403C319.946 330.938 322.011 334.499 322.011 334.499L309.102 309.067L301.874 241.928L306.004 185.47Z" fill="black"/>
<path d="M273.216 167.387C296.03 167.387 314.524 149.17 314.524 126.697C314.524 104.224 296.03 86.0063 273.216 86.0063C250.402 86.0063 231.908 104.224 231.908 126.697C231.908 149.17 250.402 167.387 273.216 167.387Z" fill="#2F2E41"/>
<path d="M289.739 160.775C289.739 160.775 285.608 177.052 287.674 177.052C289.739 177.052 296.968 185.698 296.968 185.698L301.615 202.483L298.001 214.69L285.608 212.147L270.118 195.362L265.471 190.785L261.34 176.034C261.34 176.034 266.503 169.931 262.889 164.844C259.274 159.758 289.739 160.775 289.739 160.775Z" fill="#FBBEBE"/>
<path opacity="0.1" d="M289.739 160.775C289.739 160.775 285.608 177.052 287.674 177.052C289.739 177.052 296.968 185.698 296.968 185.698L301.615 202.483L298.001 214.69L285.608 212.147L270.118 195.362L265.471 190.785L261.34 176.034C261.34 176.034 266.503 169.931 262.889 164.844C259.274 159.758 289.739 160.775 289.739 160.775Z" fill="black"/>
<path d="M164.782 206.044L153.422 187.733C153.422 187.733 141.16 161.007 132.382 170.671C123.604 180.335 145.677 199.94 145.677 199.94L157.037 214.69L164.782 206.044Z" fill="#FBBEBE"/>
<path d="M315.557 365.245L307.295 424.755C307.295 424.755 308.328 429.333 298.001 446.117C287.674 462.902 259.791 499.524 259.791 499.524L251.529 484.265C251.529 484.265 261.34 435.945 278.379 425.772L276.314 352.529L315.557 365.245Z" fill="#FBBEBE"/>
<path opacity="0.1" d="M315.557 365.245L307.295 424.755C307.295 424.755 308.328 429.333 298.001 446.117C287.674 462.902 259.791 499.524 259.791 499.524L251.529 484.265C251.529 484.265 261.34 435.945 278.379 425.772L276.314 352.529L315.557 365.245Z" fill="black"/>
<path d="M251.529 478.161L262.889 499.524C262.889 499.524 253.595 525.464 257.209 528.007C260.823 530.55 265.471 553.439 255.66 550.895C245.849 548.352 238.104 538.18 238.104 536.654C238.104 535.128 243.784 513.765 240.686 508.679C237.588 503.593 235.522 502.067 235.522 502.067L227.777 514.783L225.195 513.257L238.104 491.894C238.104 491.894 239.653 487.825 245.849 485.282L251.529 478.161Z" fill="#2F2E41"/>
<path opacity="0.1" d="M251.529 478.161L262.889 499.524C262.889 499.524 253.595 525.464 257.209 528.007C260.823 530.55 265.471 553.439 255.66 550.895C245.849 548.352 238.104 538.18 238.104 536.654C238.104 535.128 243.784 513.765 240.686 508.679C237.588 503.593 235.522 502.067 235.522 502.067L227.777 514.783L225.195 513.257L238.104 491.894C238.104 491.894 239.653 487.825 245.849 485.282L251.529 478.161Z" fill="black"/>
<path d="M276.435 356.802C276.435 356.802 280.445 413.056 271.667 427.807V501.05L259.791 502.576C259.791 502.576 239.653 462.902 248.431 424.755C257.209 386.608 235.522 352.529 235.522 352.529L276.435 356.802Z" fill="#FBBEBE"/>
<path d="M273.474 173.237C285.451 173.237 295.161 163.672 295.161 151.874C295.161 140.076 285.451 130.512 273.474 130.512C261.497 130.512 251.787 140.076 251.787 151.874C251.787 163.672 261.497 173.237 273.474 173.237Z" fill="#FBBEBE"/>
<path d="M295.419 208.078L273.732 181.121L261.34 172.982L256.176 179.595L241.718 183.664C241.718 183.664 232.424 185.698 222.613 196.888C212.803 208.078 195.247 214.69 195.247 214.69L180.789 212.147C180.789 212.147 163.749 204.518 163.749 202.483C163.749 200.449 148.775 216.216 152.389 222.32C156.004 228.423 163.749 236.053 167.88 240.122C172.011 244.191 173.56 255.889 198.861 252.329C224.162 248.769 233.457 236.561 233.457 236.561C233.457 236.561 238.104 259.958 251.529 264.536C264.954 269.114 308.844 272.166 308.844 272.166L318.139 241.648C318.139 241.648 328.466 228.423 314.524 209.095C314.524 209.095 314.256 198.286 312.758 191.093C312.175 188.295 311.406 186.044 310.393 185.19C306.779 182.138 287.674 177.051 287.674 177.051C287.674 177.051 290.772 187.224 292.321 187.733C293.87 188.241 297.484 205.535 295.419 208.078Z" fill="#5370FF"/>
<path d="M225.97 359.905C251.973 358.124 267.113 362.321 273.866 365.52C275.122 366.08 276.305 366.787 277.388 367.625C277.884 368.037 278.121 368.358 278.121 368.551C278.121 370.077 313.75 373.129 326.658 370.077C339.567 367.025 317.88 301.412 312.201 295.817C306.521 290.222 309.583 269.745 309.583 269.745C309.583 269.745 298.259 267.334 295.161 268.351C292.063 269.368 276.056 266.825 270.376 263.773C264.696 260.721 257.467 262.756 252.82 261.739C250.744 261.286 249.696 262.049 249.174 263.036C248.363 264.516 247.137 265.736 245.643 266.55C234.681 272.771 225.882 315.781 219.257 339.559C212.028 365.499 225.97 359.905 225.97 359.905Z" fill="#2F2E41"/>
<path d="M273.732 496.472L275.798 507.662C275.798 507.662 286.641 522.921 283.543 535.637C283.543 535.637 286.125 552.422 295.419 556.999C304.713 561.577 296.968 572.258 288.19 571.75C279.412 571.241 271.15 572.258 270.118 569.715C269.085 567.172 262.889 542.249 262.889 542.249V560.56L257.725 561.068V538.18C257.725 538.18 253.594 530.551 259.274 517.835L257.841 498.316C257.841 498.316 272.183 501.558 273.732 496.472Z" fill="#2F2E41"/>
<path d="M273.216 107.369C285.193 107.369 294.903 97.8048 294.903 86.0066C294.903 74.2084 285.193 64.644 273.216 64.644C261.239 64.644 251.529 74.2084 251.529 86.0066C251.529 97.8048 261.239 107.369 273.216 107.369Z" fill="#2F2E41"/>
<path d="M289.898 98.987C292.624 96.9462 294.821 94.2987 296.309 91.2611C297.796 88.2235 298.533 84.8821 298.458 81.5103C298.383 78.1385 297.499 74.8321 295.877 71.8616C294.256 68.891 291.944 66.3408 289.13 64.4194C291.876 65.6423 294.334 67.4155 296.346 69.626C298.358 71.8365 299.88 74.4357 300.815 77.258C301.75 80.0802 302.078 83.0635 301.777 86.0175C301.477 88.9715 300.555 91.8314 299.07 94.4148C297.585 96.9981 295.57 99.2483 293.152 101.022C290.735 102.795 287.97 104.053 285.032 104.715C282.094 105.377 279.048 105.428 276.089 104.866C273.129 104.303 270.321 103.14 267.844 101.449C271.404 103.034 275.333 103.642 279.215 103.209C283.097 102.775 286.789 101.317 289.898 98.987Z" fill="#2F2E41"/>
<path d="M273.732 152.128C285.995 152.128 295.935 144.386 295.935 134.835C295.935 125.284 285.995 117.542 273.732 117.542C261.47 117.542 251.529 125.284 251.529 134.835C251.529 144.386 261.47 152.128 273.732 152.128Z" fill="#2F2E41"/>
<path opacity="0.1" d="M273.867 365.52C275.122 366.079 276.305 366.786 277.388 367.625C277.662 362.819 279.242 333.751 277.347 334.218L273.867 365.52Z" fill="black"/>
<path d="M91.6966 194.049C131.955 194.049 164.591 161.901 164.591 122.245C164.591 82.5884 131.955 50.4404 91.6966 50.4404C51.4381 50.4404 18.8022 82.5884 18.8022 122.245C18.8022 161.901 51.4381 194.049 91.6966 194.049Z" fill="#FF6584"/>
<path d="M140.306 181.481C140.898 180.226 138.968 178.108 135.995 176.748C133.023 175.389 130.134 175.305 129.543 176.56C128.952 177.814 130.882 179.933 133.854 181.292C136.826 182.651 139.715 182.736 140.306 181.481Z" fill="#FBBEBE"/>
</g>
<defs>
<clipPath id="clip0_2302_525">
<rect width="851" height="638" fill="white" transform="translate(0.154785 0.289551)"/>
</clipPath>
</defs>
</svg>
