<svg width="180" height="174" viewBox="0 0 180 174" fill="none" xmlns="http://www.w3.org/2000/svg">
<g clip-path="url(#clip0_2301_333)">
<path d="M170.174 41.5655H169.025V15.4736C169.025 11.4684 167.107 7.62727 163.693 4.79519C160.278 1.96311 155.647 0.37207 150.819 0.37207H84.1758C79.3472 0.37207 74.7163 1.96311 71.302 4.79519C67.8876 7.62727 65.9695 11.4684 65.9695 15.4736V158.615C65.9695 162.62 67.8876 166.461 71.302 169.293C74.7163 172.125 79.3472 173.716 84.1758 173.716H150.82C153.211 173.716 155.579 173.326 157.788 172.567C159.996 171.808 162.004 170.696 163.694 169.293C165.385 167.891 166.726 166.226 167.641 164.394C168.556 162.562 169.027 160.598 169.027 158.615V60.1378H170.176L170.174 41.5655Z" fill="#090814"/>
<path d="M151.557 4.30176H142.859C143.259 5.11538 143.412 5.99815 143.304 6.87228C143.196 7.7464 142.83 8.58505 142.239 9.31433C141.648 10.0436 140.85 10.6411 139.915 11.0542C138.98 11.4674 137.937 11.6834 136.877 11.6833H98.6951C97.6358 11.6834 96.5926 11.4674 95.6576 11.0542C94.7226 10.6411 93.9245 10.0436 93.3335 9.31433C92.7425 8.58505 92.3769 7.7464 92.2687 6.87228C92.1606 5.99815 92.3133 5.11538 92.7134 4.30176H84.5898C80.9839 4.30176 77.5256 5.48993 74.9758 7.60488C72.426 9.71984 70.9936 12.5883 70.9936 15.5793V158.511C70.9937 161.502 72.4261 164.37 74.9759 166.485C77.5257 168.6 80.9839 169.788 84.5898 169.788H151.555C153.34 169.788 155.108 169.496 156.758 168.93C158.407 168.363 159.906 167.532 161.169 166.485C162.431 165.438 163.433 164.195 164.116 162.826C164.799 161.458 165.151 159.992 165.151 158.511V15.5793C165.151 12.5888 163.719 9.72068 161.17 7.6058C158.621 5.49092 155.163 4.30245 151.558 4.30176H151.557Z" fill="white"/>
<path d="M58.3314 51.2753C58.3314 51.2753 62.1994 58.077 61.5806 60.1303C61.2185 61.3785 61.3822 62.6918 62.0448 63.852L69.162 63.5952L75.815 58.3335C75.815 58.3335 65.7584 52.5584 66.3769 49.735C66.9955 46.9117 58.3314 51.2753 58.3314 51.2753Z" fill="#FFD9BC"/>
<path d="M76.2792 62.0547L79.3734 77.9682C79.3734 77.9682 79.3734 92.3417 78.4451 92.5985C77.5168 92.8552 73.4941 92.5985 73.4941 92.5985V76.4284L74.732 62.3114L76.2792 62.0547Z" fill="#5370FF"/>
<path opacity="0.1" d="M76.2792 62.0547L79.3734 77.9682C79.3734 77.9682 79.3734 92.3417 78.4451 92.5985C77.5168 92.8552 73.4941 92.5985 73.4941 92.5985V76.4284L74.732 62.3114L76.2792 62.0547Z" fill="black"/>
<path d="M94.8457 155.483L97.3212 163.44L101.035 161.13L104.438 154.713L100.106 150.35L94.8457 155.483Z" fill="#FFD9BC"/>
<path d="M104.438 153.687C104.438 153.687 100.416 156.253 100.416 158.82C100.416 158.82 98.2498 161.643 95.774 161.387V166.777C95.774 166.777 88.038 170.113 93.9174 170.883C99.7967 171.653 104.129 165.493 104.129 165.493C104.129 165.493 109.699 158.05 108.771 157.023C107.842 155.997 104.438 153.687 104.438 153.687Z" fill="#090814"/>
<path d="M76.257 91.3856C76.257 91.3856 82.1603 96.7056 79.3742 104.919C79.3742 104.919 76.2797 123.399 86.1819 130.329C96.0841 137.259 102.582 152.403 102.582 152.403L95.1555 158.05C95.1555 158.05 87.1102 142.906 78.7552 137.003C70.4001 131.099 69.472 124.426 69.472 124.426V101.07L67.9244 91.3154L76.257 91.3856Z" fill="#090814"/>
<path opacity="0.1" d="M76.257 91.3856C76.257 91.3856 82.1603 96.7056 79.3742 104.919C79.3742 104.919 76.2797 123.399 86.1819 130.329C96.0841 137.259 102.582 152.403 102.582 152.403L95.1555 158.05C95.1555 158.05 87.1102 142.906 78.7552 137.003C70.4001 131.099 69.472 124.426 69.472 124.426V101.07L67.9244 91.3154L76.257 91.3856Z" fill="#6F6F6F"/>
<path d="M68.5429 161.387L65.4486 164.21L66.6865 166.52L70.3998 167.547L76.8982 165.494L75.9699 162.413L68.5429 161.387Z" fill="#FFD9BC"/>
<path d="M76.8979 164.21C76.8979 164.21 69.7379 167.29 67.9479 166.007C67.4264 165.644 66.9993 165.197 66.6925 164.694C66.3857 164.19 66.2055 163.64 66.163 163.076C66.163 163.076 62.5779 163.44 60.1912 164.723C57.8046 166.005 54.8673 166.451 53.0312 167.546C51.1952 168.641 51.2411 170.626 56.9097 170.883C62.5782 171.139 76.8982 170.626 76.8982 169.343L76.8979 164.21Z" fill="#090814"/>
<path d="M56.7843 94.6524C56.7843 94.6524 52.7616 109.539 59.8785 126.48C59.8785 126.48 63.2824 135.977 64.8295 138.8C66.3767 141.624 67.9238 161.644 67.305 162.414C67.305 162.414 72.256 165.751 76.5881 163.441C76.5881 163.441 76.2786 151.634 76.8977 150.608C77.5167 149.581 78.1355 140.598 74.4222 133.154C70.7088 125.71 73.8034 107.744 73.8034 107.744C73.8034 107.744 81.2301 98.5029 75.6601 93.1123L56.7843 94.6524Z" fill="#090814"/>
<path d="M61.426 53.0717C66.2112 53.0717 70.0903 49.8541 70.0903 45.885C70.0903 41.9159 66.2112 38.6982 61.426 38.6982C56.6408 38.6982 52.7617 41.9159 52.7617 45.885C52.7617 49.8541 56.6408 53.0717 61.426 53.0717Z" fill="#FFD9BC"/>
<path d="M77.517 92.8553C77.517 92.8553 75.0416 95.9354 73.1849 94.3954C71.876 93.3097 63.4963 95.6685 58.6616 97.1546C56.6378 97.7758 55.2361 98.2455 55.2361 98.2455C55.2361 98.2455 55.1031 94.6881 54.71 90.1834C54.2581 85.0141 53.4661 78.5919 52.1415 74.8885C49.6661 67.9583 55.8549 65.1349 55.8549 65.1349C55.8549 65.1349 61.1157 60.0019 60.8072 59.2315C60.4987 58.461 74.732 54.6113 74.732 54.6113C76.2792 54.8681 77.517 66.4182 77.517 66.4182C77.517 66.4182 74.732 75.6583 73.1849 81.3052C71.6377 86.9521 77.517 92.8553 77.517 92.8553Z" fill="#5370FF"/>
<path d="M50.905 93.1123C50.905 93.1123 44.0973 98.759 40.6935 100.299C37.2897 101.839 35.433 106.972 38.218 107.999C41.003 109.026 47.1919 102.352 47.1919 102.352L56.1657 96.1922L50.905 93.1123Z" fill="#FFD9BC"/>
<path d="M52.1914 41.5917C51.4 41.6502 50.9475 42.477 51.203 43.1012C51.4585 43.7254 52.1927 44.1336 52.9427 44.3518C53.6926 44.57 54.4943 44.6448 55.245 44.861C55.9916 45.0875 56.6844 45.4212 57.2916 45.8468C59.4303 47.2997 60.697 49.5136 61.1 51.7823C61.503 54.051 61.1013 56.3756 60.3412 58.5806C59.9384 59.7486 59.2807 61.0289 57.9044 61.4436C59.4088 61.1354 60.8791 60.7218 62.2992 60.2073C63.3399 59.8006 64.3168 59.286 65.3687 58.8997C66.9256 58.3729 68.559 58.0176 70.2272 57.8428C71.3984 57.6912 72.6368 57.5761 73.7371 57.9427C74.4118 58.2031 75.0326 58.5504 75.5765 58.9717L79.1159 61.4382C79.1775 60.366 79.2182 59.2931 79.2379 58.2196C79.2551 57.2867 79.2507 56.3266 78.8361 55.4593C78.4268 54.6028 77.6497 53.9047 77.1299 53.0907C75.8432 51.0758 76.2624 48.6504 76.2865 46.3711C76.3113 44.0112 75.8534 41.606 74.5364 39.5141C73.2193 37.4223 70.9701 35.6705 68.2268 35.0441C64.5294 34.1992 60.6314 35.4558 57.2328 36.9291C56.433 37.2447 55.6875 37.6473 55.0159 38.1262C54.3017 38.7314 53.6949 39.4177 53.2135 40.1646L51.5308 42.5035" fill="#090814"/>
<path opacity="0.1" d="M74.1129 68.9853C74.1129 68.9853 68.2336 87.4657 67.6148 88.749C67.1692 89.6704 61.9272 94.5729 58.6626 97.1555C56.6388 97.7761 55.2371 98.2454 55.2371 98.2454C55.2371 98.2454 55.1042 94.688 54.7111 90.1833C57.2299 87.865 59.8788 85.6684 59.8788 85.6684C59.8788 85.6684 62.6638 71.5515 62.3543 66.1615C62.0448 60.7716 68.5432 59.4883 68.5432 59.4883C75.9696 60.2585 74.1129 68.9853 74.1129 68.9853Z" fill="black"/>
<path d="M67.6148 58.4619C67.6148 58.4619 61.1164 59.7452 61.426 65.1352C61.7355 70.5251 58.9505 84.6421 58.9505 84.6421C58.9505 84.6421 48.4295 93.3689 49.3578 94.3956C50.2862 95.4224 54.2636 97.4406 55.2147 97.7149C56.1657 97.9892 66.0679 89.005 66.6867 87.7222C67.3055 86.4393 73.1851 67.9585 73.1851 67.9585C73.1851 67.9585 75.0413 59.2319 67.6148 58.4619Z" fill="#5370FF"/>
<path d="M8.39833 159.729C8.50803 159.451 9.33868 159.573 9.41835 159.324C9.49802 159.076 8.7008 158.869 8.08931 158.17C7.97908 158.044 7.28426 157.25 7.55069 156.916C8.05561 156.283 11.5697 157.859 12.4131 156.975C12.5983 156.78 12.6743 156.447 13.2257 155.826C13.4452 155.58 13.586 155.46 13.7542 155.464C13.9929 155.469 14.0781 155.717 14.4532 156.165C15.0156 156.837 15.2185 156.753 15.5892 157.305C15.8642 157.714 15.8969 157.975 16.0951 157.99C16.3759 158.012 16.4919 157.503 16.8346 157.483C17.1846 157.463 17.5349 157.966 17.7084 158.359C18.0341 159.097 17.8324 159.661 17.7867 160.223C17.7381 160.834 17.8523 161.728 18.6524 162.876L26.2013 172.85C24.5803 170.817 19.9791 165.272 18.1253 163.238C17.59 162.651 17.0149 162.061 16.1299 161.95C15.2775 161.844 14.2408 162.193 12.7934 162.173C12.6244 162.171 12.154 162.159 12.0396 161.952C11.945 161.781 12.1799 161.633 12.0944 161.472C11.9798 161.256 11.4641 161.349 10.7623 161.206C10.3642 161.119 9.98549 160.98 9.64063 160.794C9.55339 160.751 8.25309 160.097 8.39911 159.727L8.39833 159.729Z" fill="#D6D6E3"/>
<path d="M28.1669 162.057C28.3631 162.022 28.5303 162.395 28.7006 162.356C28.8709 162.317 28.7633 161.932 29.0002 161.482C29.043 161.4 29.3124 160.888 29.5869 160.901C30.1072 160.924 30.1877 162.809 30.9551 162.897C31.2596 162.883 31.5648 162.883 31.8693 162.897C32.0783 162.915 32.1898 162.938 32.235 163.008C32.3009 163.106 32.1791 163.212 32.0219 163.495C31.7868 163.918 31.8947 163.976 31.6755 164.286C31.5128 164.516 31.3675 164.604 31.4156 164.69C31.4838 164.81 31.8187 164.711 31.9292 164.844C32.0396 164.977 31.8453 165.269 31.6627 165.453C31.32 165.799 30.9282 165.879 30.5826 166.023C30.0157 166.276 29.5552 166.666 29.2627 167.141L25.5384 173.092C26.274 171.845 28.2273 168.372 28.896 167.031C29.089 166.643 29.2719 166.239 29.0822 165.847C28.8994 165.469 28.3934 165.148 27.9878 164.553C27.9405 164.483 27.8114 164.288 27.9008 164.182C27.9747 164.094 28.1304 164.147 28.2009 164.066C28.2955 163.957 28.092 163.774 27.9739 163.446C27.9102 163.259 27.8831 163.065 27.8937 162.871C27.8937 162.823 27.9055 162.105 28.1667 162.058L28.1669 162.057Z" fill="#D6D6E3"/>
<path d="M24.4515 163.51L24.3345 162.614L24.2627 162.557C23.9629 162.341 23.7478 162.055 23.6446 161.737C23.6321 161.692 23.6227 161.646 23.6128 161.6C23.5803 161.365 23.4769 161.141 23.3121 160.948C23.1925 160.816 22.8761 160.515 22.5499 160.621C22.4726 160.645 22.4065 160.689 22.361 160.746L22.3287 160.719C22.2316 160.638 22.1185 160.572 21.9943 160.524C21.8957 160.484 21.8031 160.435 21.7185 160.377C21.6626 160.34 21.6176 160.306 21.58 160.278C21.5243 160.223 21.4527 160.181 21.3719 160.156C21.2911 160.131 21.2039 160.123 21.1185 160.133C21.0343 160.161 20.9596 160.205 20.9013 160.262C20.843 160.319 20.8029 160.388 20.7846 160.461C20.7238 160.599 20.68 160.742 20.654 160.887C20.6497 160.915 20.6432 160.943 20.6347 160.97C20.5882 161.067 20.0042 161.092 19.7842 161.103C19.2903 161.124 18.8627 161.144 18.7597 161.425C18.6861 161.626 18.8397 161.845 19.2299 162.093C19.338 162.161 19.4551 162.218 19.5789 162.263C19.5423 162.291 19.5128 162.324 19.4921 162.361C19.4714 162.398 19.4601 162.438 19.4587 162.479C19.4517 162.702 19.7283 162.874 20.2816 162.99C20.4647 163.034 20.6552 163.054 20.8458 163.048C20.9462 163.043 21.0461 163.032 21.1446 163.015C21.1587 163.06 21.1856 163.102 21.223 163.137C21.3005 163.198 21.3984 163.238 21.5038 163.253C21.6093 163.267 21.7175 163.255 21.8146 163.218C22.0701 163.155 22.3182 163.073 22.5556 162.973C22.7037 162.906 22.8618 162.856 23.0258 162.823C23.2701 162.795 23.4976 162.92 23.77 163.086L24.4528 163.511L24.4515 163.51Z" fill="#D6D6E3"/>
<path d="M22.5031 158.403L23.5782 158.537L23.6621 158.493C23.9905 158.308 24.3781 158.208 24.7754 158.206C24.8313 158.207 24.8869 158.211 24.9436 158.215C25.2255 158.248 25.513 158.222 25.7795 158.139C25.9644 158.076 26.3941 157.899 26.3541 157.61C26.3456 157.542 26.3114 157.478 26.2564 157.427L26.2959 157.408C26.4148 157.351 26.5209 157.277 26.6093 157.189C26.6808 157.12 26.7619 157.059 26.8509 157.005C26.9084 156.97 26.9586 156.942 27.0009 156.919C27.0788 156.888 27.1459 156.841 27.1959 156.783C27.2459 156.724 27.2771 156.656 27.2866 156.585C27.2763 156.511 27.2436 156.44 27.1917 156.378C27.1397 156.317 27.0701 156.268 26.9891 156.234C26.8438 156.151 26.6885 156.079 26.5257 156.022C26.4944 156.011 26.4638 155.999 26.4343 155.985C26.3327 155.923 26.4516 155.448 26.4949 155.269C26.5942 154.867 26.6804 154.519 26.3792 154.366C26.1637 154.256 25.8696 154.322 25.4809 154.573C25.3745 154.643 25.2781 154.722 25.1936 154.81C25.1712 154.774 25.1401 154.741 25.1022 154.715C25.0643 154.689 25.0204 154.67 24.9731 154.658C24.7137 154.596 24.4434 154.774 24.1681 155.189C24.0703 155.325 23.9993 155.472 23.9575 155.627C23.9378 155.709 23.9253 155.792 23.9199 155.875C23.8638 155.875 23.8084 155.886 23.7582 155.907C23.6672 155.953 23.5953 156.022 23.5518 156.103C23.5082 156.184 23.4951 156.274 23.514 156.362C23.5222 156.582 23.5548 156.802 23.6114 157.018C23.6519 157.154 23.6706 157.293 23.6671 157.432C23.6381 157.636 23.4346 157.787 23.1708 157.963L22.5023 158.403L22.5031 158.403Z" fill="#D6D6E3"/>
<path d="M22.3585 155.725L22.2414 154.829L22.1696 154.772C21.8699 154.556 21.6547 154.27 21.5516 153.952C21.5393 153.907 21.5296 153.861 21.5197 153.815C21.4872 153.58 21.3837 153.356 21.2188 153.163C21.0992 153.031 20.7828 152.73 20.4566 152.836C20.3793 152.86 20.3132 152.903 20.2677 152.961L20.2353 152.934C20.1383 152.853 20.0252 152.787 19.901 152.739C19.8024 152.699 19.7098 152.649 19.6251 152.592C19.5692 152.555 19.5243 152.521 19.4867 152.493C19.431 152.438 19.3594 152.396 19.2786 152.371C19.1978 152.346 19.1106 152.338 19.0252 152.348C18.941 152.375 18.8663 152.42 18.808 152.477C18.7497 152.534 18.7096 152.603 18.6913 152.676C18.6305 152.814 18.5867 152.957 18.5607 153.102C18.5564 153.13 18.5499 153.157 18.5414 153.184C18.4949 153.282 17.9108 153.307 17.6909 153.317C17.1969 153.339 16.7693 153.359 16.6664 153.64C16.5928 153.84 16.7464 154.059 17.1366 154.308C17.2447 154.375 17.3618 154.433 17.4856 154.478C17.449 154.505 17.4194 154.538 17.3988 154.575C17.3781 154.612 17.3668 154.652 17.3654 154.693C17.3584 154.917 17.635 155.089 18.1882 155.205C18.3714 155.249 18.5619 155.268 18.7525 155.263C18.8529 155.258 18.9527 155.247 19.0513 155.23C19.0654 155.275 19.0923 155.317 19.1296 155.352C19.2072 155.413 19.3051 155.453 19.4105 155.467C19.516 155.482 19.6242 155.469 19.7213 155.432C19.9768 155.37 20.2248 155.288 20.4623 155.187C20.6104 155.121 20.7685 155.07 20.9325 155.038C21.1767 155.009 21.4042 155.134 21.6767 155.301L22.3592 155.726L22.3585 155.725Z" fill="#D6D6E3"/>
<path d="M25.8448 172.903L26.0349 172.747L26.2993 172.724C26.2993 172.702 26.2993 172.655 26.3016 172.58C26.3284 171.379 26.272 170.178 26.1326 168.983C25.982 167.619 25.7378 166.262 25.4012 164.921C25.0617 163.569 24.7117 162.563 24.4298 161.755C24.2169 161.145 24.0022 160.567 23.7925 160.003C23.1952 158.516 22.7223 156.997 22.377 155.455C22.2169 154.791 22.2463 154.104 22.4629 153.451C22.6505 152.924 22.9632 152.433 23.3826 152.008L22.9668 151.729C22.503 152.201 22.1573 152.744 21.9499 153.327C21.7096 154.045 21.6753 154.799 21.8498 155.529C22.1987 157.089 22.6772 158.628 23.2818 160.134C23.4908 160.695 23.7047 161.271 23.9165 161.878C24.196 162.679 24.5434 163.676 24.878 165.01C25.2104 166.335 25.4516 167.675 25.6003 169.023C25.7378 170.201 25.7934 171.386 25.7667 172.57C25.7615 172.786 25.7602 172.832 25.845 172.902L25.8448 172.903Z" fill="#D6D6E3"/>
<path d="M24.5241 152.519C24.5455 152.515 24.567 152.51 24.5886 152.505C25.0272 152.403 25.3791 152.107 25.6335 151.624C25.76 151.321 25.8289 151.003 25.8377 150.682C25.8697 150.37 25.8697 150.056 25.8377 149.744C25.8064 149.422 25.7649 149.293 25.6593 149.191C25.5428 149.084 25.3878 149.01 25.2171 148.981C25.2125 148.936 25.1937 148.894 25.1625 148.857C25.0251 148.694 24.7952 148.761 24.6706 148.796C24.5964 148.82 24.5196 148.838 24.4413 148.851C24.3246 148.866 24.2052 148.855 24.0949 148.82C23.9419 148.779 23.7817 148.758 23.6206 148.759C23.3346 148.766 23.0562 148.837 22.8148 148.965C22.2923 149.225 22.1126 149.64 21.9039 150.12C21.7854 150.409 21.7144 150.709 21.6929 151.013C21.6579 151.2 21.6878 151.391 21.7793 151.564C21.899 151.759 22.0823 151.849 22.5368 152.039C22.8296 152.173 23.1334 152.289 23.4458 152.388C23.9009 152.507 24.1864 152.581 24.5225 152.518L24.5241 152.519Z" fill="#D6D6E3"/>
<path d="M0.311279 173.398C0.311279 173.568 0.624731 173.704 1.01655 173.704H178.608C179 173.704 179.313 173.568 179.313 173.398C179.313 173.229 179 173.093 178.608 173.093H1.01655C0.624731 173.093 0.311279 173.229 0.311279 173.398Z" fill="#F2F2F2"/>
<path d="M125.336 99.9818H110.708C109.046 99.9803 107.453 99.4319 106.277 98.4571C105.102 97.4823 104.441 96.1605 104.439 94.7819V91.3153C104.439 90.8556 104.659 90.4147 105.051 90.0896C105.443 89.7646 105.975 89.582 106.529 89.582C107.083 89.582 107.615 89.7646 108.006 90.0896C108.398 90.4147 108.619 90.8556 108.619 91.3153V94.7819C108.619 95.2414 108.839 95.682 109.231 96.007C109.623 96.3319 110.154 96.5147 110.708 96.5152H125.336C125.89 96.5147 126.421 96.3319 126.813 96.007C127.205 95.682 127.425 95.2414 127.426 94.7819V73.9822C127.425 73.5226 127.205 73.082 126.813 72.7571C126.421 72.4321 125.89 72.2494 125.336 72.2489H110.708C110.154 72.2494 109.623 72.4321 109.231 72.7571C108.839 73.082 108.619 73.5226 108.619 73.9822V77.4488C108.619 77.9085 108.398 78.3494 108.006 78.6744C107.615 78.9995 107.083 79.1821 106.529 79.1821C105.975 79.1821 105.443 78.9995 105.051 78.6744C104.659 78.3494 104.439 77.9085 104.439 77.4488V73.9822C104.441 72.6035 105.102 71.2818 106.277 70.307C107.453 69.3321 109.046 68.7838 110.708 68.7822H125.336C126.998 68.7838 128.591 69.3321 129.767 70.307C130.942 71.2818 131.603 72.6035 131.605 73.9822V94.7819C131.603 96.1605 130.942 97.4823 129.767 98.4571C128.591 99.4319 126.998 99.9803 125.336 99.9818Z" fill="#D6DDFF"/>
<path d="M117.187 85.9417H94.6289C94.2572 85.9414 93.894 85.8499 93.585 85.6785C93.2761 85.5072 93.0352 85.2638 92.8929 84.979C92.7506 84.6942 92.7132 84.3808 92.7854 84.0784C92.8577 83.776 93.0363 83.4982 93.2988 83.2799L98.9389 78.6017C99.1114 78.4495 99.319 78.3276 99.5494 78.2433C99.7798 78.1589 100.028 78.1137 100.28 78.1105C100.532 78.1073 100.782 78.1461 101.015 78.2246C101.249 78.303 101.461 78.4196 101.639 78.5673C101.817 78.715 101.958 78.8909 102.052 79.0845C102.147 79.2782 102.193 79.4856 102.189 79.6945C102.186 79.9033 102.131 80.1094 102.029 80.3005C101.928 80.4916 101.781 80.6638 101.597 80.8069L99.1679 82.8219H117.187C117.676 82.8336 118.141 83.003 118.482 83.2942C118.823 83.5854 119.013 83.9753 119.013 84.3812C119.013 84.7872 118.823 85.1771 118.482 85.4683C118.141 85.7594 117.676 85.9289 117.187 85.9406V85.9417Z" fill="#D6DDFF"/>
<path d="M100.268 90.6196C100.021 90.6198 99.7765 90.5796 99.5484 90.5012C99.3203 90.4228 99.1132 90.3079 98.9388 90.1629L93.2988 85.4849C92.9631 85.1897 92.7793 84.7975 92.7864 84.3917C92.7935 83.9859 92.9911 83.5984 93.337 83.3114C93.683 83.0244 94.1502 82.8606 94.6395 82.8547C95.1287 82.8487 95.6015 83.0012 95.9574 83.2797L101.597 87.9579C101.86 88.1761 102.038 88.4539 102.111 88.7563C102.183 89.0586 102.146 89.372 102.004 89.6568C101.861 89.9416 101.621 90.1851 101.312 90.3565C101.003 90.5279 100.64 90.6193 100.268 90.6196Z" fill="#D6DDFF"/>
</g>
<defs>
<clipPath id="clip0_2301_333">
<rect width="179" height="173.343" fill="white" transform="translate(0.311279 0.373047)"/>
</clipPath>
</defs>
</svg>
