<svg width="290" height="289" viewBox="0 0 290 289" fill="none" xmlns="http://www.w3.org/2000/svg">
<g clip-path="url(#clip0_2274_282)">
<path d="M263.736 275.661C263.427 275.676 263.122 275.592 262.86 275.422C262.599 275.251 262.395 275.002 262.276 274.708C262.156 274.414 262.128 274.089 262.193 273.778C262.259 273.467 262.416 273.184 262.643 272.967L262.747 272.544C262.733 272.51 262.719 272.476 262.706 272.442C262.394 271.685 261.873 271.039 261.207 270.586C260.541 270.133 259.759 269.893 258.961 269.896C258.163 269.899 257.384 270.145 256.721 270.603C256.058 271.061 255.541 271.711 255.236 272.471C254.014 275.503 252.458 278.541 252.075 281.748C251.907 283.165 251.978 284.602 252.286 285.994C249.416 279.543 247.926 272.531 247.916 265.435C247.916 263.654 248.012 261.874 248.204 260.105C248.363 258.654 248.583 257.213 248.865 255.783C250.403 248.023 253.705 240.75 258.5 234.56C260.821 233.255 262.698 231.248 263.878 228.81C264.306 227.934 264.608 226.998 264.775 226.032C264.513 226.068 263.788 221.958 263.986 221.706C263.621 221.136 262.968 220.852 262.569 220.295C260.587 217.526 257.857 218.01 256.432 221.773C253.387 223.356 253.357 225.983 255.226 228.509C256.414 230.116 256.578 232.291 257.621 234.012C257.513 234.153 257.402 234.29 257.294 234.432C255.333 237.031 253.623 239.823 252.19 242.766C252.539 239.469 252.123 236.133 250.976 233.034C249.815 230.146 247.637 227.714 245.72 225.217C243.417 222.218 238.694 223.527 238.288 227.328C238.284 227.365 238.28 227.402 238.277 227.439C238.561 227.604 238.84 227.78 239.113 227.966C239.456 228.202 239.721 228.539 239.875 228.933C240.028 229.327 240.063 229.76 239.974 230.175C239.884 230.59 239.676 230.967 239.375 231.257C239.074 231.548 238.696 231.738 238.288 231.802L238.246 231.809C238.348 232.867 238.527 233.915 238.783 234.945C236.323 244.749 241.634 248.32 249.217 248.48C249.384 248.569 249.547 248.657 249.715 248.741C248.275 252.947 247.372 257.327 247.028 261.772C246.833 264.395 246.845 267.029 247.062 269.65L247.049 269.557C246.5 266.643 244.991 264.014 242.779 262.113C239.492 259.331 234.849 258.306 231.304 256.07C230.927 255.82 230.489 255.687 230.041 255.686C229.593 255.685 229.155 255.816 228.777 256.063C228.399 256.311 228.097 256.664 227.908 257.083C227.719 257.501 227.649 257.966 227.708 258.423C227.713 258.456 227.718 258.489 227.722 258.521C228.251 258.743 228.766 258.999 229.263 259.286C229.548 259.452 229.827 259.628 230.1 259.814C230.442 260.05 230.708 260.387 230.861 260.781C231.015 261.175 231.05 261.608 230.96 262.022C230.871 262.437 230.663 262.814 230.362 263.105C230.061 263.395 229.682 263.585 229.275 263.65L229.233 263.656C229.203 263.661 229.177 263.665 229.147 263.67C230.05 265.892 231.318 267.937 232.894 269.716C234.432 278.275 241.039 279.087 248.105 276.594H248.109C248.885 280.067 250.008 283.447 251.462 286.679H263.436C263.479 286.542 263.518 286.401 263.556 286.264C262.448 286.336 261.335 286.267 260.243 286.06C261.131 284.937 262.02 283.804 262.908 282.681C262.928 282.66 262.947 282.638 262.964 282.615C263.415 282.04 263.87 281.469 264.32 280.894L264.321 280.893C264.345 279.131 264.148 277.372 263.736 275.661Z" fill="#F2F2F2"/>
<path d="M243.783 165.921C246.957 154.046 252.877 143.932 262.435 136.151C262.813 135.549 263.408 135.126 264.088 134.975C264.768 134.824 265.479 134.957 266.064 135.345L287.88 149.862C288.465 150.252 288.875 150.865 289.022 151.566C289.168 152.267 289.039 153 288.662 153.603L270.01 183.373C269.632 183.975 269.037 184.398 268.357 184.549C267.677 184.7 266.966 184.567 266.381 184.179L244.565 169.662C243.98 169.272 243.57 168.659 243.424 167.958C243.277 167.257 243.406 166.524 243.783 165.921Z" fill="#F2F2F2"/>
<path d="M251.09 158.044C251.908 151.769 256.945 145.355 263.081 138.904C263.435 138.34 263.992 137.944 264.629 137.803C265.267 137.662 265.932 137.786 266.48 138.15L285.229 150.626C285.777 150.991 286.161 151.565 286.298 152.222C286.435 152.878 286.314 153.564 285.961 154.129L269.364 180.621C269.01 181.185 268.453 181.581 267.816 181.722C267.178 181.864 266.513 181.739 265.965 181.375L254.35 173.646C251.913 172.021 250.201 169.465 249.59 166.54C248.979 163.615 249.518 160.559 251.09 158.044Z" fill="white"/>
<path d="M252.763 183.626C249.995 171.644 250.457 159.841 255.197 148.278C255.247 147.563 255.57 146.897 256.096 146.427C256.622 145.957 257.307 145.721 258.001 145.771L283.905 147.665C284.599 147.717 285.245 148.05 285.701 148.592C286.157 149.134 286.386 149.84 286.337 150.555L283.904 185.904C283.854 186.619 283.53 187.285 283.005 187.755C282.479 188.225 281.794 188.461 281.099 188.411L255.196 186.516C254.502 186.465 253.856 186.132 253.4 185.59C252.944 185.048 252.715 184.342 252.763 183.626Z" fill="#F2F2F2"/>
<path d="M255.485 173.096C253.27 167.191 254.686 159.07 257.05 150.371C257.097 149.701 257.4 149.077 257.892 148.637C258.384 148.197 259.026 147.976 259.676 148.023L281.938 149.651C282.588 149.699 283.193 150.011 283.62 150.518C284.048 151.026 284.262 151.687 284.217 152.357L282.051 183.812C282.004 184.482 281.701 185.106 281.209 185.546C280.716 185.986 280.075 186.207 279.424 186.16L265.634 185.152C262.738 184.937 260.043 183.547 258.141 181.286C256.238 179.026 255.283 176.081 255.485 173.096Z" fill="white"/>
<path d="M254.997 109.653L243.9 67.3227C243.424 65.5307 242.284 64.0032 240.726 63.0697C239.167 62.1363 237.315 61.8717 235.569 62.3332C234.666 62.5719 233.819 62.9977 233.081 63.5847C232.343 64.1716 231.728 64.9074 231.274 65.7472C230.821 66.5869 230.538 67.5131 230.443 68.4691C230.348 69.4252 230.444 70.3911 230.723 71.3081L243.558 114.915L250.274 141.751C249.296 142.521 248.571 143.582 248.199 144.791C247.826 145.999 247.824 147.297 248.192 148.507C248.56 149.717 249.281 150.781 250.256 151.555C251.231 152.328 252.414 152.773 253.643 152.83C254.873 152.886 256.089 152.551 257.127 151.871C258.166 151.19 258.975 150.196 259.447 149.025C259.918 147.853 260.028 146.56 259.761 145.322C259.495 144.084 258.865 142.961 257.957 142.104L254.997 109.653Z" fill="#FFB6B6"/>
<path d="M174.965 116.976L186.345 74.7258C186.822 72.9343 186.596 71.0214 185.717 69.3998C184.837 67.7782 183.375 66.578 181.644 66.0581C180.749 65.7892 179.81 65.711 178.884 65.8283C177.959 65.9456 177.066 66.2559 176.26 66.7403C175.455 67.2248 174.754 67.8732 174.2 68.646C173.645 69.4189 173.25 70.2999 173.036 71.2356L162.521 115.497L155.031 142.114C153.808 142.263 152.66 142.796 151.742 143.64C150.824 144.485 150.181 145.6 149.899 146.835C149.618 148.069 149.712 149.363 150.168 150.541C150.625 151.718 151.423 152.723 152.453 153.417C153.482 154.111 154.695 154.462 155.925 154.421C157.155 154.381 158.343 153.951 159.327 153.19C160.312 152.43 161.046 151.375 161.428 150.17C161.811 148.964 161.825 147.667 161.467 146.453L174.965 116.976Z" fill="#FFB6B6"/>
<path d="M240.089 279.273L232.837 279.273L229.388 250.446L240.09 250.447L240.089 279.273Z" fill="#FFB6B6"/>
<path d="M240.344 287.07L218.044 287.069V286.778C218.044 284.406 218.959 282.131 220.587 280.453C222.214 278.776 224.422 277.833 226.724 277.833L230.798 274.648L238.398 277.834L240.345 277.834L240.344 287.07Z" fill="#2F2E41"/>
<path d="M189.057 279.348L181.917 278.036L183.431 249.032L193.968 250.969L189.057 279.348Z" fill="#FFB6B6"/>
<path d="M187.98 287.07L166.026 283.035L166.076 282.749C166.48 280.413 167.768 278.339 169.656 276.982C171.544 275.625 173.878 275.096 176.144 275.513L180.697 273.114L187.637 277.625L189.553 277.977L187.98 287.07Z" fill="#2F2E41"/>
<path d="M189.763 146.733C189.763 146.733 183.005 156.598 183.28 159.909C183.556 163.22 185.943 160.578 183.556 163.219C181.169 165.861 179.778 164.089 180.951 167.352C182.124 170.614 182.601 168.502 182.124 170.614C181.647 172.727 182.601 253.544 182.601 253.544H195.029C195.029 253.544 202.038 206.683 201.151 204.495C200.263 202.307 200.284 203.26 201.228 200.935C202.173 198.61 203.062 195.844 203.062 195.844L212.885 167.352L220.463 207.468L229.383 255.138H241.292C241.292 255.138 243.332 185.038 244.233 184.165C245.135 183.292 244.056 181.329 242.925 180.197C241.794 179.066 242.019 177.917 242.384 175.586C242.748 173.256 244.286 171.956 244.233 170.493C244.18 169.03 247.522 145.789 242.271 142.091C237.02 138.394 189.763 146.733 189.763 146.733Z" fill="#2F2E41"/>
<path d="M231.318 48.4638L217.417 44.7513L210.927 35.5273L195.516 37.4798L192.235 50.0614L181.264 56.6247C200.931 56.7458 190.34 115.467 193.231 119.255C195.583 122.338 181.489 129.673 185.906 134.352C190.323 139.03 188.69 137.158 187.665 142.252C186.64 147.346 179.169 152.737 187.665 152.683C196.162 152.63 247.432 151.875 245.967 145.836C244.502 139.798 244.525 141.331 242.316 137.545C240.107 133.759 238.621 135.875 239.364 130.288C240.107 124.701 237.693 120.38 239.375 117.908C241.956 114.113 239.355 86.7205 236.921 87.4516L231.318 48.4638Z" fill="#5370FF"/>
<path d="M227.349 48.66C227.349 48.66 237.518 44.2077 241.18 52.5108C242.35 55.1628 243.335 61.8239 244.284 60.3467C245.233 58.8696 244.317 62.1078 244.905 62.1119C245.429 62.1154 246.235 61.2414 245.626 64.2525C245.435 65.2402 245.49 66.2617 245.786 67.2216C246.081 68.1815 246.608 69.0487 247.317 69.7421L229.642 80.6511L227.349 48.66Z" fill="#5370FF"/>
<path d="M189.142 56.2079C189.142 56.2079 178.973 51.7556 175.31 60.0586C174.28 62.3938 174.537 67.5825 172.531 66.9999C170.525 66.4174 171.949 68.6122 171.685 69.3747C171.39 70.2246 172.677 72.6295 170.869 71.788C169.061 70.9464 169.174 77.29 169.174 77.29L186.848 88.199L189.142 56.2079Z" fill="#5370FF"/>
<path d="M193.963 43.7725L191.033 49.0562C191.033 49.0562 182.977 53.5852 182.977 54.34C182.977 55.0948 184.442 61.2582 182.977 66.1022C181.512 70.9461 185.773 80.0558 186.639 87.5523C190.301 119.255 179.411 130.774 177.117 150.958L200.359 157.953C200.359 157.953 204.217 104.913 204.217 92.8361C204.217 80.7589 193.963 43.7725 193.963 43.7725Z" fill="#2F2E41"/>
<path d="M215.203 41.5088L221.191 45.0184C221.191 45.0184 229.026 46.7987 229.12 47.5474C229.213 48.296 229.241 56.2527 231.294 60.8641C233.347 65.4756 232.782 67.9276 238.311 81.56C241.137 88.5253 247.623 144.253 247.623 144.253L225.439 154.251C225.439 154.251 215.038 102.153 213.541 90.1751C212.044 78.1968 215.203 41.5088 215.203 41.5088Z" fill="#2F2E41"/>
<path d="M200.233 34.3118C208.597 34.3118 215.377 27.3241 215.377 18.7043C215.377 10.0844 208.597 3.09668 200.233 3.09668C191.869 3.09668 185.088 10.0844 185.088 18.7043C185.088 27.3241 191.869 34.3118 200.233 34.3118Z" fill="#FFB6B6"/>
<path d="M210.199 30.8307C206.619 27.9468 211.513 15.2608 205.601 17.9686C205.601 17.9686 198.376 13.23 196.924 16.3439C195.243 19.9496 189.265 18.3139 185.593 17.0412C185.882 16.3498 186.087 15.6246 186.204 14.8817C185.526 15.4321 184.808 15.9277 184.056 16.3642C183.552 16.0865 183.106 15.7093 182.742 15.254C182.384 14.8313 182.16 14.3056 182.1 13.7478C182.04 13.1899 182.148 12.6265 182.407 12.1333C183.018 11.1652 184.28 10.8674 185.022 10.0076C185.108 9.88675 185.164 9.74622 185.185 9.5981C185.207 9.44998 185.193 9.29869 185.145 9.15724C185.057 8.81134 185.043 8.44959 185.106 8.09776C185.169 7.74593 185.306 7.41268 185.508 7.12175C185.71 6.83083 185.972 6.58939 186.274 6.41463C186.577 6.23987 186.914 6.1361 187.26 6.11071C187.399 6.11509 187.537 6.08408 187.662 6.0204C188.286 5.62734 188.861 5.15921 189.377 4.62589C188.516 4.6665 189.569 -0.761834 198.1 0.266314C200.248 0.185088 201.37 2.62643 203.485 3.0123C208.612 -0.00700291 213.188 4.34835 215.415 8.51156C217.642 12.6748 220.052 26.092 210.199 30.8307Z" fill="#2F2E41"/>
<path d="M145.579 8.44043H9.82476C7.24209 8.44265 4.76574 9.50059 2.93901 11.3821C1.11228 13.2637 0.0843845 15.8152 0.0808105 18.4768V144.544C0.084169 147.206 1.11183 149.758 2.93845 151.641C4.76507 153.523 7.24153 154.582 9.82476 154.586H145.579C148.162 154.582 150.638 153.523 152.464 151.64C154.289 149.757 155.316 147.205 155.318 144.544V18.4768C155.316 15.8158 154.289 13.2644 152.463 11.3827C150.637 9.50104 148.162 8.44286 145.579 8.44043Z" fill="white"/>
<path d="M83.5512 37.3747H69.0481C68.3358 37.3747 67.6526 37.083 67.1489 36.564C66.6453 36.0449 66.3623 35.3409 66.3623 34.6068C66.3623 33.8727 66.6453 33.1686 67.1489 32.6496C67.6526 32.1305 68.3358 31.8389 69.0481 31.8389H83.5512C84.2635 31.8389 84.9466 32.1305 85.4503 32.6496C85.954 33.1686 86.237 33.8727 86.237 34.6068C86.237 35.3409 85.954 36.0449 85.4503 36.564C84.9466 37.083 84.2635 37.3747 83.5512 37.3747Z" fill="#5370FF"/>
<path d="M275.852 164.55H261.349C260.637 164.55 259.953 164.259 259.45 163.74C258.946 163.221 258.663 162.517 258.663 161.783C258.663 161.048 258.946 160.344 259.45 159.825C259.953 159.306 260.637 159.015 261.349 159.015H275.852C276.564 159.015 277.247 159.306 277.751 159.825C278.255 160.344 278.538 161.048 278.538 161.783C278.538 162.517 278.255 163.221 277.751 163.74C277.247 164.259 276.564 164.55 275.852 164.55Z" fill="#5370FF"/>
<path d="M121.152 95.3522H31.4474C30.7351 95.3522 30.0519 95.0606 29.5482 94.5415C29.0446 94.0224 28.7616 93.3184 28.7616 92.5843C28.7616 91.8502 29.0446 91.1462 29.5482 90.6271C30.0519 90.108 30.7351 89.8164 31.4474 89.8164H121.152C121.864 89.8164 122.547 90.108 123.051 90.6271C123.555 91.1462 123.838 91.8502 123.838 92.5843C123.838 93.3184 123.555 94.0224 123.051 94.5415C122.547 95.0606 121.864 95.3522 121.152 95.3522Z" fill="#E6E6E6"/>
<path d="M121.152 113.621H31.4474C30.7351 113.621 30.0519 113.329 29.5482 112.81C29.0446 112.291 28.7616 111.587 28.7616 110.853C28.7616 110.119 29.0446 109.415 29.5482 108.896C30.0519 108.377 30.7351 108.085 31.4474 108.085H121.152C121.864 108.085 122.547 108.377 123.051 108.896C123.555 109.415 123.838 110.119 123.838 110.853C123.838 111.587 123.555 112.291 123.051 112.81C122.547 113.329 121.864 113.621 121.152 113.621Z" fill="#E6E6E6"/>
<path d="M121.152 131.888H31.4474C30.7351 131.888 30.0519 131.597 29.5482 131.078C29.0446 130.559 28.7616 129.855 28.7616 129.12C28.7616 128.386 29.0446 127.682 29.5482 127.163C30.0519 126.644 30.7351 126.353 31.4474 126.353H121.152C121.864 126.353 122.547 126.644 123.051 127.163C123.555 127.682 123.838 128.386 123.838 129.12C123.838 129.855 123.555 130.559 123.051 131.078C122.547 131.597 121.864 131.888 121.152 131.888Z" fill="#E6E6E6"/>
<path d="M102.817 45.6797H49.7836C47.201 45.6819 44.7246 46.7399 42.8979 48.6214C41.0712 50.503 40.0432 53.0545 40.0397 55.7161V72.174C40.043 74.8363 41.0707 77.3885 42.8973 79.2709C44.7239 81.1534 47.2004 82.2125 49.7836 82.216H102.817C105.399 82.2123 107.875 81.153 109.701 79.2704C111.527 77.3878 112.553 74.8357 112.555 72.174V55.7161C112.553 53.055 111.526 50.5036 109.7 48.622C107.875 46.7403 105.399 45.6821 102.817 45.6797ZM111.481 72.174C111.481 74.5437 110.568 76.8163 108.942 78.4919C107.316 80.1675 105.111 81.1088 102.811 81.1088H64.7418C58.4753 81.1088 52.4655 78.5433 48.0344 73.9767C43.6033 69.4102 41.114 63.2165 41.114 56.7584V55.7161C41.1176 53.3481 42.0324 51.0783 43.6576 49.4044C45.2829 47.7305 47.4859 46.7891 49.7836 46.7868H102.817C105.114 46.7894 107.316 47.7309 108.941 49.405C110.565 51.079 111.479 53.3487 111.481 55.7161V72.174Z" fill="#E6E6E6"/>
<path d="M76.8937 69.8881C81.9369 69.8881 86.0253 65.6747 86.0253 60.4773C86.0253 55.2798 81.9369 51.0664 76.8937 51.0664C71.8504 51.0664 67.7621 55.2798 67.7621 60.4773C67.7621 65.6747 71.8504 69.8881 76.8937 69.8881Z" fill="#E6E6E6"/>
<path d="M97.9018 82.2157L57.019 82.0663L69.9107 78.7448L71.5168 73.281L83.8767 73.209L87.5777 78.6119L96.9241 81.1086L97.7728 81.3355L97.9018 82.2157Z" fill="#E6E6E6"/>
<path d="M71.7039 66.4857C73.6635 64.9072 70.9848 57.9631 74.2208 59.4453C74.2208 59.4453 78.1758 56.8515 78.9705 58.556C79.8906 60.5297 83.1628 59.6343 85.1727 58.9377C85.0147 58.5592 84.9024 58.1622 84.8383 57.7556C85.2094 58.0569 85.6025 58.3282 86.014 58.5671C86.2901 58.4151 86.5344 58.2086 86.7332 57.9594C86.9292 57.728 87.0519 57.4403 87.0847 57.1349C87.1175 56.8296 87.0588 56.5212 86.9165 56.2512C86.5821 55.7213 85.8918 55.5583 85.4855 55.0877C85.4386 55.0215 85.4079 54.9446 85.3962 54.8635C85.3844 54.7824 85.3919 54.6996 85.418 54.6222C85.4665 54.4328 85.4738 54.2348 85.4394 54.0422C85.4051 53.8497 85.33 53.6672 85.2195 53.508C85.1089 53.3488 84.9656 53.2166 84.7999 53.1209C84.6341 53.0253 84.4499 52.9685 84.2604 52.9546C84.1841 52.957 84.1085 52.94 84.0401 52.9051C83.699 52.69 83.384 52.4338 83.1017 52.1418C83.5727 52.1641 82.9968 49.1927 78.3269 49.7555C77.1512 49.711 76.5372 51.0474 75.3794 51.2586C72.573 49.6059 70.068 51.9899 68.8491 54.2688C67.6302 56.5476 66.3107 63.8919 71.7039 66.4857Z" fill="#E6E6E6"/>
<path d="M145.579 8.44043H9.82476C7.24209 8.44265 4.76574 9.50059 2.93901 11.3821C1.11228 13.2637 0.0843845 15.8152 0.0808105 18.4768V144.544C0.084169 147.206 1.11183 149.758 2.93845 151.641C4.76507 153.523 7.24153 154.582 9.82476 154.586H145.579C148.162 154.582 150.638 153.523 152.464 151.64C154.289 149.757 155.316 147.205 155.318 144.544V18.4768C155.316 15.8158 154.289 13.2644 152.463 11.3827C150.637 9.50104 148.162 8.44286 145.579 8.44043ZM154.244 144.544C154.244 146.913 153.33 149.186 151.704 150.862C150.079 152.537 147.873 153.478 145.574 153.478H71.0929C61.9085 153.478 52.8141 151.614 44.3288 147.992C35.8436 144.37 28.1337 139.061 21.6394 132.368C15.1451 125.675 9.9935 117.729 6.4788 108.984C2.9641 100.24 1.15511 90.8671 1.15512 81.4019V18.4768C1.15877 16.1089 2.07352 13.839 3.69876 12.1651C5.32399 10.4912 7.52704 9.54989 9.82476 9.54759H145.579C147.877 9.55011 150.079 10.4917 151.703 12.1657C153.328 13.8397 154.241 16.1094 154.244 18.4768V144.544Z" fill="#E6E6E6"/>
<path d="M287.408 287.967L118.013 288.137C117.844 288.136 117.682 288.066 117.562 287.943C117.443 287.819 117.376 287.652 117.376 287.478C117.376 287.303 117.443 287.136 117.562 287.013C117.682 286.889 117.844 286.819 118.013 286.819L287.408 286.648C287.577 286.649 287.739 286.719 287.858 286.843C287.977 286.966 288.044 287.133 288.044 287.308C288.044 287.482 287.977 287.649 287.858 287.772C287.739 287.896 287.577 287.966 287.408 287.967Z" fill="#CACACA"/>
</g>
<defs>
<clipPath id="clip0_2274_282">
<rect width="289" height="288" fill="white" transform="translate(0.0808105 0.136719)"/>
</clipPath>
</defs>
</svg>
